<?xml version="1.0" encoding="UTF-8" standalone="no"?>
<!-- Created with Inkscape (http://www.inkscape.org/) -->

<svg
   xmlns:dc="http://purl.org/dc/elements/1.1/"
   xmlns:cc="http://creativecommons.org/ns#"
   xmlns:rdf="http://www.w3.org/1999/02/22-rdf-syntax-ns#"
   xmlns:svg="http://www.w3.org/2000/svg"
   xmlns="http://www.w3.org/2000/svg"
   xmlns:sodipodi="http://sodipodi.sourceforge.net/DTD/sodipodi-0.dtd"
   xmlns:inkscape="http://www.inkscape.org/namespaces/inkscape"
   width="1000"
   height="1000"
   id="svg3665"
   sodipodi:version="0.32"
   inkscape:version="0.91 r13725"
   version="1.0"
   sodipodi:docname="cinco-villas.svg"
   inkscape:output_extension="org.inkscape.output.svg.inkscape">
  <defs
     id="defs3667">
    <clipPath
       id="SVG_CP_1">
      <path
         d="m 0,0 0,413.26299 297.01417,0 L 297.01417,0 0,0 Z"
         id="path6"
         inkscape:connector-curvature="0" />
    </clipPath>
  </defs>
  <sodipodi:namedview
     id="base"
     pagecolor="#ffffff"
     bordercolor="#666666"
     borderopacity="1.0"
     gridtolerance="10000"
     guidetolerance="10"
     objecttolerance="10"
     inkscape:pageopacity="0.0"
     inkscape:pageshadow="2"
     inkscape:zoom="1.0738933"
     inkscape:cx="687.18271"
     inkscape:cy="258.63272"
     inkscape:document-units="px"
     inkscape:current-layer="capa1"
     inkscape:window-width="1920"
     inkscape:window-height="1015"
     inkscape:window-x="0"
     inkscape:window-y="0"
     showgrid="false"
     inkscape:window-maximized="1" />
  <metadata
     id="metadata3670">
    <rdf:RDF>
      <cc:Work
         rdf:about="">
        <dc:format>image/svg+xml</dc:format>
        <dc:type
           rdf:resource="http://purl.org/dc/dcmitype/StillImage" />
        <dc:title></dc:title>
      </cc:Work>
    </rdf:RDF>
  </metadata>
  <g
     inkscape:label="Capa 1"
     inkscape:groupmode="layer"
     id="capa1">
    <path
       d="m 650.43876,137.39466 -2.34191,0 -2.34206,0 -7.02608,-2.30547 0,2.30547 -2.34202,0 -2.34207,0 -2.3421,0 -2.34191,-2.30547 -2.34207,0 0,-2.30551 -4.68406,-2.3055 -2.34198,0 -2.34203,2.3055 -2.34205,0 -2.34205,-2.3055 0,-2.30563 0,-2.30551 0,-2.3055 -2.34196,0 0,-2.30551 0,-2.30552 0,-2.30549 0,-4.61115 2.34196,-2.30555 0,-2.3055 0,-2.30552 0,-2.3055 2.34205,0 2.34205,0 2.34203,-2.30559 0,-2.305462 0,-2.305558 0,-2.305514 0,-2.305465 0,-2.305589 0,-2.305505 -2.34203,-2.305587 0,-2.305506 2.34203,-4.611021 -2.34203,-4.611022 0,-2.305624 0,-2.305539 2.34203,-2.305519 2.34198,-2.305539 0,-2.30547 0,-2.305517 2.34204,0 7.026,0 2.3421,0 2.34207,2.305517 2.34202,0 0,-2.305517 0,-2.305587 2.34196,0 4.68412,0 2.34206,0 2.34191,-2.305505 0,2.305505 2.34208,0 2.34203,-2.305505 2.34205,0 2.34199,0 0,2.305505 0,2.305587 0,2.305517 0,2.30547 2.34204,2.305539 0,2.305519 0,2.305539 2.34205,4.61114 2.34204,0 2.3419,-2.305516 4.68417,-2.305624 2.34207,0 2.34195,-2.305539 2.34203,0 2.34205,4.611163 2.34208,6.916492 0,2.305551 0,2.305506 0,2.305587 0,4.611094 0,2.305465 -2.34208,2.305514 -2.34205,0 -2.34203,0 -2.34195,0 -4.68409,0 -2.34215,0 -2.3419,2.305558 -7.02613,9.222072 0,2.3055 -2.34199,6.9167 -2.34205,0 0,2.30549 0,2.30552 0,4.61101 0,2.30551 -2.34203,2.30563 -2.34208,2.3055 0,2.30551 0,2.30547 z"
       id="path28"
       inkscape:connector-curvature="0"
       n="Bagüés" />
    <path
       d="m 439.65642,10.590657 0,2.305517 2.34202,0 7.02608,2.305541 0,2.305553 2.34205,2.305505 0,2.305469 0,2.305553 2.34204,0 2.34203,2.305505 2.34202,-2.305505 2.34204,0 2.34206,0 0,-2.305553 2.34202,0 0,-2.305469 2.34189,-2.305505 2.34211,-2.305553 0,-2.305541 0,-2.305517 2.34203,0 2.34211,0 2.3419,-2.3055054 2.34203,0 2.34207,0 2.34207,0 0,2.3055054 2.34199,0 2.34202,2.305517 2.34203,2.305541 0,2.305553 2.34194,0 -2.34194,2.305505 0,4.611022 0,2.305505 0,2.305623 0,2.305516 0,2.305542 -2.34203,2.30547 0,2.305517 0,6.916631 0,2.305519 -2.34202,2.305539 -2.34199,2.305517 -4.68414,0 -4.68393,0 0,2.305507 0,2.305505 0,2.305587 2.3419,2.305517 -2.3419,2.30547 -2.34211,4.611058 0,2.305539 0,2.305624 0,2.305516 -2.34203,2.305506 0,2.30547 0,2.305551 -2.34211,4.611093 0,2.305505 -9.36801,-2.305505 -4.68405,0 -2.34204,0 -2.34205,-2.305587 -2.34192,2.305587 0,2.305505 -2.34214,2.305589 -2.34202,0 0,2.305465 -2.34202,0 -4.68401,2.305514 -2.34208,0 0,-2.305514 -2.34206,2.305514 -2.34191,0 -2.34208,-2.305514 0,-2.305465 -11.71019,-4.611094 -4.68394,-2.305587 -9.3681,0 -2.34205,-4.611057 0,-2.30547 0,-11.527704 0,-4.611009 0,-4.611104 0,-2.305505 2.34205,0 -2.34205,-2.305507 2.34205,0 2.3419,0 2.34206,-2.305517 0,-2.305539 4.68414,-4.611023 2.3419,-2.305588 2.34204,0 4.68412,-4.611056 4.68405,-2.30547 2.34202,-4.611058 2.34208,0 2.34191,0 2.34206,0 2.34208,0 2.34202,0 0,-2.305623 2.34199,0 0,-2.305505 -4.68401,-2.305553 -2.34208,0 -2.34206,-2.305469 -2.34191,0 0,-2.305505 -2.34208,0 -2.34202,0 -4.68405,-2.305553 0,-4.611058 0,-4.6110926 2.34199,0 2.34206,0 0,-2.3054701 2.34202,0 2.34208,0 4.68397,2.3054701 2.34208,0 0,2.3055872 2.34202,0 0,2.3055054 2.34199,0 z"
       id="path62"
       inkscape:connector-curvature="0"
       n="Undués de Lerda" />
    <path
       d="m 575.49405,54.395681 4.68393,-2.305507 2.34207,0 2.34207,0 4.68401,2.305507 2.34202,0 2.34207,0 2.34198,0 2.34207,0 2.34203,0 2.34203,-2.305507 0,2.305507 0,-2.305507 4.68401,0 2.34207,0 2.34196,0 4.6841,0 2.34203,0 2.34198,2.305507 0,2.305505 0,2.305587 0,2.305517 0,2.30547 -2.34198,2.305539 -2.34203,2.305519 0,2.305539 0,2.305624 2.34203,4.611022 -2.34203,4.611021 0,2.305506 2.34203,2.305587 0,2.305505 0,2.305589 0,2.305465 0,2.305514 0,2.305558 0,2.305462 -2.34203,2.30559 -2.34205,0 -2.34205,0 0,2.3055 0,2.30552 0,2.3055 -2.34196,2.30555 0,4.61115 0,2.30549 0,2.30552 0,2.30551 2.34196,0 0,2.3055 0,2.30551 0,2.30563 2.34205,2.3055 0,2.30551 -2.34205,0 -2.34196,2.30547 -2.34207,0 -4.68401,0 -2.34203,0 -2.34203,2.30555 -2.34207,0 -2.34198,-2.30555 -2.34207,2.30555 0,-2.30555 -2.34202,2.30555 -4.68401,0 -4.68414,0 -2.34203,-2.30555 -4.68397,0 -2.34207,0 -2.34207,0 -2.34194,0 -2.34203,2.30555 -2.34205,-2.30555 -2.34204,2.30555 -4.68404,-2.30555 -4.68411,0 -11.71004,-2.30547 -2.34202,0 -2.34203,-2.30551 -2.34211,0 -2.34197,-2.3055 0,-2.30563 -2.34208,0 -2.34203,0 0,-2.30551 -2.34202,0 -4.68401,-2.3055 0,-2.30551 -4.68408,-2.30552 -2.34193,0 0,-2.30549 -2.3421,0 0,-2.30561 -2.34202,0 -2.34208,-2.30554 0,-2.30555 -2.34199,0 2.34199,-4.61102 2.34208,-4.61109 2.34202,-2.305462 -2.34202,-4.611072 7.02605,-11.527652 2.34202,-2.305551 2.34206,2.305551 2.34202,2.305506 2.34199,0 4.68405,-2.305506 2.34208,0 4.68408,-2.305551 0,-2.30547 -2.34211,0 0,-2.305506 -2.34197,0 -2.34208,0 0,-2.305516 -2.34203,0 -2.34202,0 -2.34199,-2.305624 0,-2.305539 -2.34202,0 0,-2.305519 0,-2.305539 -2.34206,0 0,-2.30547 -2.34202,0 2.34202,0 -2.34202,-2.305517 -2.34193,0 0,-2.305587 -2.3421,0 2.3421,0 2.34193,0 2.34202,0 0,-2.305505 -2.34202,0 0,-2.305507 2.34202,-6.916575 2.34206,0 0,-2.305504 0,-2.305588 0,-2.305539 2.34202,0 -2.34202,0 0,-2.305517 -2.34206,-2.30547 -2.34202,0 -2.34193,0 0,-2.305542 -2.3421,0 -2.34202,-2.305516 0,-2.305623 -2.34208,0 -2.34199,0 -2.34202,0 -2.34206,0 -2.34207,-2.305505 0,-2.305553 0,-2.305469 -2.34194,0 2.34194,-2.305505 0,2.305505 2.34207,2.305469 0,2.305553 2.34206,0 2.34202,0 4.68407,-4.611022 0,-2.305505 2.34202,0 2.3421,0 2.34193,-2.305553 2.34202,0 0,-2.305541 2.34206,0 0,-2.305517 0,-2.3055054 2.34202,-2.3055872 2.34199,0 2.34202,0 0,2.3055872 0,2.3055054 2.34203,2.305517 2.34208,2.305541 2.34197,2.305553 2.34211,2.305505 2.34203,2.305469 2.34202,0 2.34196,0 2.342,0 2.34203,0 4.68405,0 2.34208,0 2.34203,0 0,2.305553 0,4.611128 0,4.611058 2.34202,2.30547 -2.34202,6.916644 0,2.305504 0,2.305519 0,2.305539 2.34202,6.916529 7.02611,0 4.68397,-2.305505 2.34207,0 2.34207,0 2.34207,0 z"
       id="path82"
       inkscape:connector-curvature="0" />
    <path
       d="m 507.57521,116.64502 0,2.30549 -2.34202,2.30552 0,4.61101 -2.34208,4.61114 0,2.3055 0,2.30551 0,2.30547 -2.34199,2.30555 0,2.30551 -2.34202,0 0,2.30548 -2.34206,0 0,-2.30548 -2.34207,0 0,-2.30551 -2.34194,-2.30555 -2.34203,0 -2.34202,0 0,2.30555 -2.34199,0 -2.34207,2.30551 -2.34207,-2.30551 -2.34203,0 -2.3419,0 -2.34211,0 0,-2.30555 -2.34203,0 0,2.30555 -2.34211,0 0,2.30551 -2.34189,-2.30551 0,-2.30555 0,2.30555 -2.34202,0 -2.34206,-2.30555 0,-2.30547 0,-2.30551 0,-4.61113 -2.34204,-2.30551 -2.34202,-2.3055 -2.34203,0 0,-2.30551 0,-2.30552 -2.34204,0 0,-2.30549 0,-2.30561 0,-2.30554 4.68407,-4.61105 0,-2.30552 0,-2.3055 4.68406,-9.222124 0,-2.305465 2.34206,-2.305589 4.68391,2.305589 0,-2.305589 0,-2.305505 2.34211,-4.611093 0,-2.305551 0,-2.30547 2.34203,-2.305506 0,-2.305516 0,-2.305624 0,-2.305539 2.34211,-4.611058 2.3419,-2.30547 -2.3419,-2.305517 0,-2.305587 0,-2.305505 0,-2.305507 4.68393,0 4.68414,0 2.34199,-2.305517 2.34202,-2.305539 0,-2.305519 0,-6.916631 0,-2.305517 2.34203,-2.30547 0,-2.305542 0,-2.305516 0,-2.305623 0,-2.305505 0,-4.611022 2.34194,0 0,2.305469 0,2.305553 2.34207,2.305505 2.34206,0 2.34202,0 2.34199,0 2.34208,0 0,2.305623 2.34202,2.305516 2.3421,0 0,2.305542 2.34193,0 2.34202,0 2.34206,2.30547 0,2.305517 2.34202,0 -2.34202,0 0,2.305539 0,2.305588 0,2.305504 -2.34206,0 -2.34202,6.916575 0,2.305507 2.34202,0 0,2.305505 -2.34202,0 -2.34193,0 -2.3421,0 2.3421,0 0,2.305587 2.34193,0 2.34202,2.305517 -2.34202,0 2.34202,0 0,2.30547 2.34206,0 0,2.305539 0,2.305519 2.34202,0 0,2.305539 2.34199,2.305624 2.34202,0 2.34203,0 0,2.305516 2.34208,0 2.34197,0 0,2.305506 2.34211,0 0,2.30547 -4.68408,2.305551 -2.34208,0 -4.68405,2.305506 -2.34199,0 -2.34202,-2.305506 -2.34206,-2.305551 -2.34202,2.305551 -7.02605,11.527652 2.34202,4.611072 -2.34202,2.305462 -2.34208,4.61109 -2.34199,4.61102 2.34199,0 0,2.30555 2.34208,2.30554 2.34202,0 0,2.30561 z"
       id="path92"
       inkscape:connector-curvature="0"
       n="Urriés" />
    <path
       d="m 680.88516,222.69927 0,2.30547 2.34205,0 0,2.30552 2.34208,2.30554 2.34195,0 0,2.30551 2.34202,2.30562 2.342,0 2.34208,2.30554 0,2.30547 2.34195,2.30553 2.3421,0 2.34203,0 2.34203,2.3055 2.34199,0 0,2.30551 4.68413,0 0,2.30558 7.02598,0 2.34204,0 2.3421,2.30551 2.34196,2.30555 2.34206,0 2.34206,0 2.34192,0 2.34209,2.30551 2.34204,0 0,2.30551 2.34203,0 0,2.3055 2.34197,2.30563 -2.34197,0 2.34197,2.30552 0,4.61101 2.34203,0 2.34207,2.30551 2.34206,2.30555 2.34191,0 2.34208,0 2.34206,-2.30555 2.34207,-2.30551 2.34194,0 4.6841,2.30551 0,2.30555 -2.34206,2.30546 0,4.61118 -2.34204,0 0,4.61102 -4.68401,2.30551 -7.02605,2.30547 -2.34206,-2.30547 -4.6841,-4.61106 -2.34197,2.30555 0,2.30551 0,2.30547 0,2.30557 0,2.3056 0,2.30547 -2.34203,2.3055 2.34203,0 0,2.30556 2.34197,0 0,4.61109 0,2.30551 -2.34197,0 -2.34203,2.30554 0,2.30548 0,2.30555 -2.34204,2.30554 0,2.30546 0,4.61112 -2.34209,2.3055 0,6.91653 0,2.30566 -2.34192,2.30551 0,4.61101 -2.34206,0 -2.34206,2.30553 -2.34196,2.30549 -2.3421,2.30563 0,2.30552 -2.34204,2.30549 2.34204,2.30552 -2.34204,0 -2.34204,2.30554 0,2.30551 -2.34191,0 0,2.30547 -2.34203,2.30563 0,2.30551 -2.34211,0 -2.34202,0 0,2.30548 2.34202,0 0,2.3055 -2.34202,0 0,2.30558 -2.34199,0 0,2.30548 0,2.30562 -2.34203,0 0,2.30554 -2.34203,0 2.34203,0 0,2.30549 2.34203,0 -2.34203,2.3055 -2.34203,2.3055 -2.3421,0 -4.68403,-2.3055 -2.342,0 -2.34202,-2.3055 -2.34195,-2.30549 -2.34208,-2.30554 -2.34205,2.30554 -4.68398,2.30549 -4.68409,0 -2.34215,-2.30549 -2.3419,-2.30554 -2.34204,0 -4.68409,-2.30562 -2.34199,2.30562 -2.34205,0 -2.34203,0 -2.34208,0 -2.34191,0 -2.34206,0 0,2.30554 -2.34207,0 -2.34205,2.30549 -2.34196,0 -2.34202,0 -2.34207,0 -2.3421,2.3055 -2.34191,-2.3055 0,2.3055 0,-2.3055 -2.34207,0 0,-2.30549 0,-2.30554 -2.34202,0 0,-2.30562 0,-2.30548 0,-2.30558 -2.34204,-2.3055 0,-2.30548 0,-2.30551 0,-2.30563 0,-2.30547 0,-2.30551 0,-4.61106 0,-2.30549 -2.34198,0 0,-2.30552 0,-4.61112 -2.34203,0 0,-2.30553 -2.34205,0 0,-2.30554 0,-2.30547 -2.34205,0 -2.34196,-2.30551 -4.68414,-2.30566 -2.34194,-2.30551 -2.34203,0 0,-2.30551 0,-2.30551 2.34203,-4.61103 2.34194,-2.30559 0,-2.30546 2.34207,-2.30554 4.68403,-11.52767 0,-2.3055 2.34205,-2.30556 2.34205,0 0,-2.3055 0,-2.30547 2.34203,0 0,-4.61117 2.34198,-2.30547 0,-2.30551 0,-2.30555 0,-2.30547 -2.34198,0 0,-2.30552 2.34198,-4.61112 0,-2.30555 0,-2.30551 0,-2.30551 -2.34198,-2.3055 -2.34203,0 0,-2.30552 0,-2.30563 -2.34205,0 -2.34205,0 0,-2.3055 2.34205,0 0,-2.30551 2.34205,-4.61106 2.34203,-2.30551 0,-2.30558 2.34198,0 0,-2.30551 2.34204,-2.3055 2.34202,2.3055 2.34207,-2.3055 2.34191,2.3055 2.3421,-2.3055 0,-2.30553 0,2.30553 2.34207,0 2.34202,0 2.34196,-2.30553 2.34205,-2.30547 2.34207,0 2.34206,0 2.34191,2.30547 4.68411,0 4.68404,-4.61101 2.34204,0 0,-2.30562 2.34205,2.30562 2.34204,-2.30562 2.3419,-2.30551 2.34215,-2.30554 2.34202,0 2.34207,-4.61099 0,-2.3055 2.34195,2.3055 2.34203,0 z"
       id="path104"
       inkscape:connector-curvature="0"
       n="Biel" />
    <path
       d="m 399.84205,84.36753 9.3681,0 4.68394,2.305587 11.71019,4.611094 0,2.305465 2.34208,2.305514 2.34191,0 2.34206,-2.305514 0,2.305514 2.34208,0 4.68401,-2.305514 2.34202,0 0,-2.305465 2.34202,0 2.34214,-2.305589 0,-2.305505 2.34192,-2.305587 2.34205,2.305587 2.34204,0 4.68405,0 9.36801,2.305505 0,2.305589 -4.68391,-2.305589 -2.34206,2.305589 0,2.305465 -4.68406,9.222124 0,2.3055 0,2.30552 -4.68407,4.61105 0,2.30554 0,2.30561 0,2.30549 -2.34205,0 -2.34192,0 -2.34214,0 -2.34202,0 -2.34202,-2.30549 -2.34199,0 0,2.30549 -2.34202,2.30552 -2.34208,2.30551 -2.34206,0 0,2.3055 -2.34191,-2.3055 0,-2.30551 -2.34208,-2.30552 0,2.30552 -2.34202,0 -2.34206,0 0,2.30551 -2.34199,0 0,-2.30551 -2.34206,0 -2.34206,0 0,2.30551 0,6.91664 -2.34204,9.22203 2.34204,0 2.34206,2.30551 2.34206,0 0,2.30548 -2.34206,4.61116 2.34206,0 2.34199,0 21.07824,9.22209 2.34202,2.30558 2.34214,0 2.34192,2.30554 2.34205,2.30548 2.34204,0 2.34203,0 2.34202,0 2.34204,0 0,-2.30548 0,-2.30554 0,-2.30558 2.34206,-2.30553 -2.34206,-4.61104 0,-2.30552 0,-4.61116 0,-9.22201 0,2.30547 2.34206,2.30555 2.34202,0 0,-2.30555 0,2.30555 2.34189,2.30551 0,-2.30551 2.34211,0 0,-2.30555 2.34203,0 0,2.30555 2.34211,4.61099 2.3419,2.30565 0,2.30551 0,4.61102 0,2.30554 0,4.61111 -2.3419,0 0,4.61102 -2.34211,0 4.68401,2.3055 2.34203,2.30551 2.34207,0 2.34207,0 2.34199,-2.30551 2.34202,-2.3055 0,2.3055 2.34203,0 2.34194,0 0,2.30551 0,2.30558 -2.34194,0 0,2.30555 -2.34203,2.30552 0,2.30555 -2.34202,2.30547 0,2.3055 0,2.30552 -2.34199,2.3055 -2.34207,2.30563 0,2.30554 0,2.30551 -2.34207,0 0,2.30551 -2.34203,0 0,2.30551 -2.3419,0 0,2.30552 -2.34211,2.30559 -2.34203,4.61099 0,2.30553 0,2.30554 0,2.3055 -2.34211,-2.3055 -4.68391,4.61109 -2.34206,0 -2.34204,2.30556 -2.34202,0 -2.34203,2.3055 -2.34204,0 0,-2.3055 -2.34205,0 -2.34192,2.3055 -2.34214,2.30547 0,2.30552 -2.34202,0 0,2.30554 0,2.30551 -2.34202,0 0,2.30562 -2.34199,-2.30562 -2.34202,2.30562 -2.34208,0 -2.34206,2.30554 -2.34191,2.30547 -4.6841,2.30553 -2.34206,2.3055 -2.34199,0 -2.34206,-2.3055 -4.6841,0 -2.3419,0 -2.34211,4.61101 -4.68409,2.30558 -7.02601,2.30551 -2.34206,2.30555 0,2.30551 -2.34197,6.91664 -4.68409,2.30552 0,2.3055 -2.34207,2.30551 -2.34195,2.30551 -2.34207,2.30555 0,4.61112 -2.34203,4.61099 0,2.30555 -4.68401,2.30551 -2.34203,0 0,-2.30551 -2.34211,0 0,-2.30555 -2.3419,0 -2.34202,-2.30547 -2.34212,0 -2.34202,-2.30552 -4.68401,2.30552 -2.34204,0 -4.68401,2.30547 -4.68411,2.30555 -2.34204,2.30551 -4.68397,4.61104 0,2.3056 -2.34211,0 -2.34206,0 -2.34195,0 -2.34207,0 -2.34202,2.30547 -7.02603,2.3055 -4.68409,2.30556 -16.39419,9.22214 -4.68401,16.13865 -2.34203,0 -2.34202,4.61102 -2.34208,-4.61102 2.34208,-2.3055 -2.34208,-2.30553 -2.34199,0 0,-2.30559 0,-4.611 0,-2.30555 -2.34205,0 0,-2.30548 -4.68411,0 -2.34194,0 -2.34206,2.30548 -4.68409,2.30555 -4.68402,-4.61103 0,-2.30554 -2.34203,-2.30551 0,-2.30559 2.34203,-2.3055 0,-2.30556 0,-2.3055 2.34207,-4.61107 2.34195,-4.61104 0,-2.30551 2.34202,-2.30555 0,-6.91665 0,-2.30546 4.68413,-6.91657 0,-4.61102 2.34194,-9.22215 0,-2.30555 -2.34194,-2.30551 4.68398,-6.91659 4.68412,-4.611 2.34199,-4.61116 2.34208,0 2.34202,-6.91657 9.3681,-9.22212 2.34202,-2.3055 2.34191,-2.30554 9.3682,-2.30553 2.34202,0 2.34207,-2.30549 4.68396,-2.3055 0,-2.30559 2.34207,-2.30552 2.34202,-2.30551 2.34207,-2.30551 0,-4.61105 2.34195,-2.30563 0,-4.61102 2.34206,-2.3055 0,-2.30547 0,-2.30555 2.34211,0 0,-2.30552 0,-2.30555 0,-2.30558 -2.34211,-2.30551 2.34211,0 -2.34211,0 0,-4.61098 0,-2.30554 0,-2.30558 0,-2.30553 -2.34206,-2.30554 -2.34195,0 -2.34207,0 -4.68409,0 0,-2.3055 0,-6.91668 0,-2.30548 0,-2.30551 -2.34193,0 -2.34203,-2.30555 2.34203,-4.61098 2.34193,-9.22214 7.02616,-13.83322 0,-2.3055 4.68401,-9.222072 2.34211,0 0,-6.916537 2.34203,-4.611094 2.34194,-4.611093 2.34204,-2.305551 2.34201,2.305551 2.3421,0 2.34196,0 0,2.305506 2.34205,2.305587 2.34204,0 2.34202,0 0,2.305505 2.34199,0 2.34202,0 0,2.305589 2.34212,0 0,-2.305589 2.34202,2.305589 0,2.305465 2.3419,0 2.34211,0 0,2.305514 0,-2.305514 2.34203,0 0,2.305514 0,2.305558 2.34207,-2.305558 0,2.305558 2.34194,0 7.02605,-9.222126 4.6841,0 4.68403,0 2.34206,-2.305505 2.34206,2.305505 2.34205,-2.305505 0,-2.305587 z"
       id="path112"
       inkscape:connector-curvature="0"
       n="Sos del Rey Católico" />
    <path
       d="m 451.36657,118.95051 2.34204,0 0,2.30552 0,2.30551 2.34203,0 2.34202,2.3055 2.34204,2.30551 0,4.61113 0,2.30551 0,9.22201 0,4.61116 0,2.30552 2.34206,4.61104 -2.34206,2.30553 0,2.30558 0,2.30554 0,2.30548 -2.34204,0 -2.34202,0 -2.34203,0 -2.34204,0 -2.34205,-2.30548 -2.34192,-2.30554 -2.34214,0 -2.34202,-2.30558 -21.07824,-9.22209 -2.34199,0 -2.34206,0 2.34206,-4.61116 0,-2.30548 -2.34206,0 -2.34206,-2.30551 -2.34204,0 2.34204,-9.22203 0,-6.91664 0,-2.30551 2.34206,0 2.34206,0 0,2.30551 2.34199,0 0,-2.30551 2.34206,0 2.34202,0 0,-2.30552 2.34208,2.30552 0,2.30551 2.34191,2.3055 0,-2.3055 2.34206,0 2.34208,-2.30551 2.34202,-2.30552 0,-2.30549 2.34199,0 2.34202,2.30549 2.34202,0 2.34214,0 2.34192,0 2.34205,0 z m 74.94481,9.22204 -4.68405,11.52766 -2.34199,6.91664 0,2.30551 -2.34202,6.91656 -2.34206,2.30553 0,2.30558 -2.34202,4.61102 0,2.3055 -2.34193,0 -2.3421,0 -2.34202,-2.3055 -4.68407,0 -2.34202,0 -2.34206,0 0,2.3055 -2.34207,0 0,2.30551 0,-2.30551 -2.34194,0 -2.34203,0 0,-2.3055 -2.34202,2.3055 -2.34199,2.30551 -2.34207,0 -2.34207,0 -2.34203,-2.30551 -4.68401,-2.3055 2.34211,0 0,-4.61102 2.3419,0 0,-4.61111 0,-2.30554 0,-4.61102 0,-2.30551 -2.3419,-2.30565 -2.34211,-4.61099 2.34211,0 2.3419,0 2.34203,0 2.34207,2.30551 2.34207,-2.30551 2.34199,0 0,-2.30555 2.34202,0 2.34203,0 2.34194,2.30555 0,2.30551 2.34207,0 0,2.30548 2.34206,0 0,-2.30548 2.34202,0 0,-2.30551 2.34199,-2.30555 0,-2.30547 0,-2.30551 0,-2.3055 2.34208,-4.61114 0,-4.61101 2.34202,-2.30552 0,-2.30549 2.3421,0 0,2.30549 2.34193,0 4.68408,2.30552 0,2.30551 4.68401,2.3055 2.34202,0 0,2.30551 2.34203,0 z"
       id="path120"
       inkscape:connector-curvature="0"
       n="Navardún" />
    <path
       d="m 690.25326,130.47818 -2.34202,2.3055 2.34202,4.61098 0,2.30555 -2.34202,2.30551 2.34202,0 0,2.30548 0,2.30565 0,2.30551 0,2.30552 0,2.3055 2.342,2.30554 0,2.30553 -2.342,0 -2.34202,4.61112 0,2.30548 -2.34195,2.3055 0,2.30551 2.34195,0 2.34202,2.30558 2.342,0 0,2.30555 2.34208,0 2.34195,2.30552 2.3421,0 0,2.30555 2.34203,2.30547 2.34203,0 0,2.3055 0,2.30552 0,2.3055 0,2.30563 0,2.30554 -2.34203,4.61102 -2.34203,0 -2.3421,-2.30551 -2.34195,-2.30551 -2.34208,0 0,2.30551 -2.342,-2.30551 -2.34202,0 0,2.30551 0,2.30551 -2.34195,0 0,2.30551 -4.68413,2.30552 -2.34203,4.61109 2.34203,0 0,2.30549 2.34205,0 0,2.30553 2.34208,0 2.34195,2.30554 -7.02608,9.22215 -2.34203,0 -2.34195,-2.3055 0,2.3055 -2.34207,4.61099 -2.34202,0 -2.34215,0 0,-2.30552 -2.3419,0 -2.34204,0 0,-2.30547 -2.34205,0 0,-2.3055 -2.34204,0 -2.34199,-2.30556 -2.34205,0 -4.68411,-4.61109 2.34208,-2.30554 -2.34208,0 -2.34191,-2.30553 -2.34206,0 -2.34207,-2.30549 -4.68401,-2.3055 -2.34202,0 0,-2.30559 -2.34207,0 -2.3421,-2.30552 -2.34191,0 0,2.30552 -2.34207,0 0,-2.30552 -4.68406,0 0,-2.30551 -2.34198,0 -2.34203,0 -4.6841,0 -2.34196,0 -2.34207,0 -2.34207,0 -2.34194,0 0,-2.30551 0,-2.30551 0,-2.30554 0,-2.30563 2.34194,-4.61102 2.34207,-2.3055 0,-2.30547 2.34207,-2.30555 0,-2.30552 0,-2.30555 -2.34207,0 0,-2.30558 2.34207,-4.61101 -2.34207,-2.30548 2.34207,0 0,-2.30554 -2.34207,-2.30558 0,-2.30553 2.34207,0 0,-2.30554 0,-2.3055 0,-2.30552 0,-2.30551 0,-2.30565 0,-6.91654 2.34196,-2.30547 2.34205,0 0,-2.30551 2.34205,0 2.34203,-2.3055 2.34198,0 4.68406,2.3055 0,2.30551 2.34207,0 2.34191,2.30547 2.3421,0 2.34207,0 2.34202,0 0,-2.30547 7.02608,2.30547 2.34206,0 2.34191,0 2.34208,0 0,2.30555 2.34203,0 2.34205,0 2.34199,0 2.34204,0 2.34205,0 7.02609,0 0,-4.61102 0,-2.30551 7.02604,-2.3055 4.68408,-2.30563 2.34208,2.30563 2.34195,0 2.34202,0 z"
       id="path124"
       inkscape:connector-curvature="0"
       n="Longás" />
    <path
       d="m 563.78387,139.70021 -2.34205,6.91664 0,2.30551 -2.34204,4.61102 -2.34202,6.91665 0,2.30554 -2.34202,2.30548 -2.34203,4.61101 -2.34208,4.61113 2.34208,2.30552 0,2.30555 0,2.30547 0,2.3055 0,2.30552 -2.34208,2.3055 0,2.30563 -2.34194,2.30554 0,2.30551 -2.34211,2.30551 0,2.30551 2.34211,0 0,2.30552 0,2.30559 2.34194,0 0,2.3055 -2.34194,2.30549 -2.34211,0 -2.34203,0 -2.342,2.30553 -2.34196,0 -2.34202,-2.30553 -2.34203,-2.30549 -2.34211,-2.3055 -2.34197,-2.30559 -2.34208,-6.91654 0,-6.91668 -4.68405,0 -2.34199,-2.3055 -2.34202,0 0,-2.30552 -2.34206,0 -4.68395,-2.3055 -2.3421,-2.30547 0,-2.30555 2.3421,-2.30552 0,-2.30555 0,-2.30558 0,-2.30551 2.34193,0 0,-2.3055 2.34202,-4.61102 0,-2.30558 2.34206,-2.30553 2.34202,-6.91656 0,-2.30551 2.34199,-6.91664 4.68405,-11.52766 2.34208,0 0,2.30563 2.34197,2.3055 2.34211,0 2.34203,2.30551 2.34202,0 11.71004,2.30547 4.68411,0 4.68404,2.30555 2.34204,-2.30555 2.34205,2.30555 z"
       id="path126"
       inkscape:connector-curvature="0"
       n="Isuerre" />
    <path
       d="m 610.62441,137.39466 0,6.91654 0,2.30565 0,2.30551 0,2.30552 0,2.3055 0,2.30554 -2.34207,0 0,2.30553 2.34207,2.30558 0,2.30554 -2.34207,0 2.34207,2.30548 -2.34207,4.61101 0,2.30558 2.34207,0 0,2.30555 0,2.30552 -2.34207,2.30555 0,2.30547 -2.34207,2.3055 -2.34194,4.61102 0,2.30563 0,2.30554 0,2.30551 0,2.30551 0,2.30551 0,2.30552 0,2.30559 0,2.3055 2.34194,0 -2.34194,0 0,2.30549 0,2.30553 -2.34203,2.30554 0,2.3055 -2.34203,0 2.34203,0 0,2.30559 -2.34203,0 0,-2.30559 -2.34207,0 0,-2.3055 -2.34198,0 -2.34207,0 -2.34202,2.3055 0,2.30559 -2.34202,2.30556 -2.34199,-2.30556 -2.34207,0 -2.34207,0 -2.34203,0 0,-2.30559 0,-2.3055 -2.3419,0 0,-2.30554 -2.34207,-2.30553 -2.34207,2.30553 -2.34207,0 0,2.30554 -2.34194,0 -2.34203,0 0,-2.30554 -2.34205,0 -2.34204,2.30554 -2.34202,0 -2.34202,0 0,-2.30554 -2.34203,0 0,-2.30553 -2.34208,0 0,-2.30549 0,-2.3055 -2.34194,0 0,-2.30559 0,-2.30552 -2.34211,0 0,-2.30551 2.34211,-2.30551 0,-2.30551 2.34194,-2.30554 0,-2.30563 2.34208,-2.3055 0,-2.30552 0,-2.3055 0,-2.30547 0,-2.30555 -2.34208,-2.30552 2.34208,-4.61113 2.34203,-4.61101 2.34202,-2.30548 0,-2.30554 2.34202,-6.91665 2.34204,-4.61102 0,-2.30551 2.34205,-6.91664 2.34203,-2.30555 2.34194,0 2.34207,0 2.34207,0 4.68397,0 2.34203,2.30555 4.68414,0 4.68401,0 2.34202,-2.30555 0,2.30555 2.34207,-2.30555 2.34198,2.30555 2.34207,0 2.34203,-2.30555 2.34203,0 4.68401,0 2.34207,0 z"
       id="path132"
       inkscape:connector-curvature="0"
       n="Lobera de Onsella" />
    <path
       d="m 671.51709,227.31026 -2.34215,2.30554 -2.3419,2.30551 -2.34204,2.30562 -2.34205,-2.30562 0,2.30562 -2.34204,0 -4.68404,4.61101 -4.68411,0 -2.34191,-2.30547 -2.34206,0 -2.34207,0 -2.34205,2.30547 -2.34196,2.30553 -2.34202,0 -2.34207,0 0,-2.30553 0,2.30553 -2.3421,2.3055 -2.34191,-2.3055 -2.34207,2.3055 -2.34202,-2.3055 -2.34204,2.3055 0,2.30551 -2.34198,0 0,2.30558 -2.34203,2.30551 -2.34205,4.61106 0,2.30551 -2.34205,0 0,2.3055 2.34205,0 2.34205,0 0,2.30563 0,2.30552 2.34203,0 2.34198,2.3055 0,2.30551 0,2.30551 0,2.30555 -2.34198,4.61112 0,2.30552 2.34198,0 0,2.30547 0,2.30555 0,2.30551 -2.34198,2.30547 0,4.61117 -2.34203,0 0,2.30547 0,2.3055 -2.34205,0 -2.34205,2.30556 0,2.3055 -4.68403,11.52767 -2.34207,2.30554 0,2.30546 -2.34194,2.30559 -2.34203,4.61103 0,2.30551 0,2.30551 2.34203,0 2.34194,2.30551 4.68414,2.30566 2.34196,2.30551 2.34205,0 0,2.30547 0,2.30554 2.34205,0 0,2.30553 2.34203,0 0,4.61112 0,2.30552 2.34198,0 0,2.30549 0,4.61106 0,2.30551 0,2.30547 0,2.30563 0,2.30551 -2.34198,0 0,2.30548 -2.34203,0 -2.34205,2.3055 -2.34205,2.30558 0,2.30548 -2.34196,0 0,2.30562 0,2.30554 -2.34207,2.30549 -2.34207,0 -2.34194,0 -2.34203,-2.30549 -2.34203,0 -2.34207,0 -2.34198,-2.30554 -2.34207,0 0,2.30554 -2.34202,0 -2.34202,0 -2.34199,2.30549 -2.34207,0 0,2.3055 -2.34207,2.3055 -2.34203,2.30555 -2.3419,0 -2.34207,2.30559 -2.34207,0 0,2.30556 -4.68401,0 0,2.30546 0,2.30554 2.34194,0 0,2.30551 0,2.30552 -2.34194,0 0,2.3055 0,2.30559 0,2.30551 0,2.30546 0,2.3056 -2.34203,0 -2.34205,2.3055 0,-2.3055 -2.34204,-2.3056 -2.34202,0 -2.34202,0 0,-2.30546 0,-2.30551 -2.34203,0 0,-2.30559 2.34203,-2.3055 -2.34203,0 0,-2.30552 -2.34208,0 -2.34194,-2.30551 -2.34211,-2.30554 -2.34203,-2.30546 -2.342,-2.30556 -2.34196,0 -2.34202,0 -2.34203,0 -2.34211,2.30556 -2.34197,0 0,2.30546 0,2.30554 -2.34208,4.61103 0,2.3055 -2.34203,0 0,2.30559 0,2.30551 -2.34202,2.30546 0,2.3056 2.34202,2.3055 0,2.30548 2.34203,0 0,2.30566 0,2.30551 0,2.30548 -2.34203,-2.30548 -2.34202,0 -2.34199,4.61098 -2.34202,0 0,2.30554 -4.68408,2.30551 -2.34193,4.61113 -2.3421,0 0,-2.30554 -2.34202,0 -2.34208,0 0,-2.30559 -2.34199,0 0,-2.30551 -2.34202,0 0,-2.30554 -2.34206,-2.3055 0,-2.30548 0,-4.61117 2.34206,-2.30548 0,-2.3055 -2.34206,-2.3056 0,-2.30546 2.34206,0 2.34202,-4.6111 2.34199,0 0,-4.61102 4.6841,-4.61105 2.3421,0 0,2.30554 2.34193,0 2.34202,0 2.34206,0 0,-2.30554 2.34202,-2.30546 2.34199,-4.61115 0,-2.30555 0,-2.3055 2.34202,0 0,-2.3055 2.34203,-2.30549 0,-2.30554 0,-2.30562 2.34208,0 0,-2.30548 -2.34208,0 -2.34203,-2.30558 0,-2.3055 0,-2.30548 0,-2.30551 2.34203,-4.6111 0,-2.30551 0,-2.30554 0,-2.30552 0,-2.30549 0,-4.61115 0,-2.30549 0,-4.61107 0,-2.30547 0,-13.8332 2.34208,-23.05529 0,-2.30556 2.34197,-2.3055 2.34211,-2.30547 0,-2.3056 0,-2.30557 2.34203,-4.61098 0,-2.30555 -2.34203,-2.30547 2.34203,0 2.34202,-2.30552 0,-2.30566 2.34196,-2.30546 2.342,-4.61106 2.34203,-2.30551 2.34211,0 0,-2.3055 0,-2.30552 2.34194,-6.91664 0,-2.30551 2.34208,-4.61106 2.34203,-2.30558 2.34202,0 2.34202,0 2.34204,0 2.34205,0 2.34203,0 2.34194,-2.30551 7.02621,2.30551 2.3419,-2.30551 2.34203,0 2.34207,-2.3055 2.34207,0 2.34199,-2.30553 0,-2.30547 0,-2.30554 0,-4.61113 -2.34199,0 -2.34207,0 0,-4.61106 -2.34207,-2.30547 -2.34203,-2.3055 0,-2.30556 2.34203,0 2.34207,0 2.34207,0 2.34199,2.30556 2.34202,-2.30556 0,-2.30559 2.34202,-2.3055 2.34207,0 2.34198,0 0,2.3055 2.34207,0 0,2.30559 2.34203,0 0,-2.30559 -2.34203,0 2.34203,0 0,-2.3055 2.34203,-2.30554 0,-2.30553 0,-2.30549 2.34194,0 -2.34194,0 0,-2.3055 0,-2.30559 0,-2.30552 0,-2.30551 2.34194,0 2.34207,0 2.34207,0 2.34196,0 4.6841,0 2.34203,0 2.34198,0 0,2.30551 4.68406,0 0,2.30552 2.34207,0 0,-2.30552 2.34191,0 2.3421,2.30552 2.34207,0 0,2.30559 2.34202,0 4.68401,2.3055 2.34207,2.30549 2.34206,0 2.34191,2.30553 2.34208,0 -2.34208,2.30554 4.68411,4.61109 2.34205,0 2.34199,2.30556 2.34204,0 0,2.3055 2.34205,0 0,2.30547 2.34204,0 2.3419,0 0,2.30552 2.34215,0 z"
       id="path148"
       inkscape:connector-curvature="0"
       n="Luesia" />
    <path
       d="m 577.83595,218.08821 0,2.30556 2.34203,2.3055 2.34207,2.30547 0,4.61106 2.34207,0 2.34199,0 0,4.61113 0,2.30554 0,2.30547 -2.34199,2.30553 -2.34207,0 -2.34207,2.3055 -2.34203,0 -2.3419,2.30551 -7.02621,-2.30551 -2.34194,2.30551 -2.34203,0 -2.34205,0 -2.34204,0 -2.34202,0 -2.34202,0 -2.34203,2.30558 -2.34208,4.61106 0,2.30551 -2.34194,6.91664 0,2.30552 0,2.3055 -2.34211,0 -2.34203,2.30551 -2.342,4.61106 -2.34196,2.30546 0,2.30566 -2.34202,2.30552 -2.34203,0 2.34203,2.30547 0,2.30555 -2.34203,4.61098 0,2.30557 0,2.3056 -2.34211,2.30547 -2.34197,2.3055 0,2.30556 -2.34208,23.05529 0,13.8332 0,2.30547 0,4.61107 0,2.30549 0,4.61115 0,2.30549 0,2.30552 0,2.30554 0,2.30551 -2.34203,4.6111 0,2.30551 0,2.30548 0,2.3055 -2.34202,0 -2.34199,-2.3055 -2.34202,0 -2.34206,0 -2.34202,-2.30548 -2.34193,0 -2.3421,0 -2.34202,0 0,-2.30551 -2.34208,2.30551 0,2.30548 -2.34199,2.3055 0,2.30558 -2.34202,2.30548 -2.34206,2.30562 -2.34207,0 -2.34194,2.30554 -2.34203,2.30549 -2.34202,2.3055 -2.34199,2.3055 -2.34207,0 -2.34207,0 0,2.30555 -2.34203,-2.30555 0,2.30555 -2.3419,0 -2.34211,0 -2.34203,0 -2.34211,0 -2.34189,2.30559 -2.34202,0 -2.34206,2.30556 0,2.30546 -2.34204,2.30554 -2.34202,0 0,2.30551 -2.34203,0 -2.34204,0 -2.34205,2.30552 0,-2.30552 -2.34192,0 0,2.30552 -2.34214,0 -2.34202,0 0,2.3055 -2.34202,2.30559 0,2.30551 -2.34199,0 0,-2.30551 -2.34202,-2.30559 -2.34208,-2.3055 -2.34206,0 -2.34191,0 -2.34208,0 -2.34202,0 -2.34206,0 0,2.3055 -2.34199,0 -2.34206,0 -2.34206,0 -2.34204,2.30559 -2.3419,0 -2.34211,0 -2.34203,0 -2.34206,2.30551 -4.68395,2.30546 0,2.3056 -2.34206,0 0,2.3055 -2.34206,2.30548 0,2.30566 -2.34197,2.30551 0,2.30548 0,2.3055 -2.34206,0 -2.34203,2.30554 -2.34207,0 -2.34195,2.30551 -9.36811,-6.91655 -2.34203,-4.61099 -14.05216,-11.5277 4.68401,0 4.68414,0 4.68401,-4.6111 0,-2.3055 4.6841,0 4.68397,-2.30552 0,-2.30551 0,-2.30554 0,-2.30546 -2.34203,0 0,-2.30556 -2.34194,0 0,-2.30559 -2.34207,0 0,-2.30555 -2.34203,0 -2.34211,0 -2.3419,0 -2.34202,-2.3055 -2.34212,2.3055 -2.34202,2.30555 0,2.30559 -2.34199,-2.30559 -2.34202,0 0,2.30559 -2.34204,4.61102 -4.68401,0 -2.3421,0 -2.34201,0 0,-2.30546 -2.34204,-2.30556 -2.34194,0 0,-2.30559 -2.34203,0 -2.34211,-4.61105 -2.34206,-2.3055 -2.34195,-6.91665 0,-2.30548 -2.34207,-2.30558 -2.34202,-2.3055 2.34202,-4.61099 0,-2.30563 2.34207,-2.30547 2.34195,-2.30551 16.39429,-6.91655 2.34196,0 0,-2.30552 2.34205,-4.61112 4.68406,-6.91654 4.68401,-11.5277 0,-2.3055 2.34212,0 0,-4.61112 2.34202,-2.30546 0,-4.61109 0,-4.61102 0,-2.30551 2.3419,0 0,-2.30559 0,-2.3055 2.34211,-4.61106 2.34203,-9.22211 4.68401,-2.30551 0,-2.30555 2.34203,-4.61099 0,-4.61112 2.34207,-2.30555 2.34195,-2.30551 2.34207,-2.30551 0,-2.3055 4.68409,-2.30552 2.34197,-6.91664 0,-2.30551 2.34206,-2.30555 7.02601,-2.30551 4.68409,-2.30558 2.34211,-4.61101 2.3419,0 4.6841,0 2.34206,2.3055 2.34199,0 0,4.61109 0,2.30551 2.34206,0 0,2.30555 -2.34206,2.30551 0,4.61101 -2.34199,4.61115 -2.34206,2.3055 0,2.30551 0,2.30551 2.34206,0 0,2.30555 2.34199,0 7.02616,-4.61106 2.34191,0 2.34206,-2.30551 0,-2.3055 2.34208,0 2.34202,0 2.34199,-2.30552 2.34202,0 2.34202,0 2.34214,-6.91664 0,-2.30551 0,-2.30555 2.34192,-2.30551 0,-4.61109 0,-2.3055 0,-2.30553 0,-2.30547 0,-2.30554 2.34205,0 0,-2.30562 4.68407,-4.61105 0,-2.30552 0,-4.61097 2.34202,0 2.34204,-2.30556 2.34206,0 4.68391,-4.61109 2.34211,2.3055 2.34203,0 2.34211,0 4.68393,0 2.34207,0 2.34207,2.30559 2.34199,0 2.34202,2.30556 2.34203,0 2.34194,0 2.34207,0 2.34206,0 4.68401,2.3055 2.34208,0 7.02605,2.30547 2.34202,0 2.34206,0 2.34202,0 2.34199,0 2.34202,2.30552 2.34203,0 2.34208,2.30554 0,-2.30554 2.34197,0 2.34211,0 0,2.30554 2.34203,0 2.34202,0 2.34196,-2.30554 0,-2.30552 2.342,0 0,-2.30547 0,-2.3055 0,-2.30556 0,-2.30559 -2.342,-4.61104 2.342,-2.30553 2.34203,0 2.34211,0 2.34194,-2.30549 0,2.30549 2.34208,0 0,2.30553 2.34203,0 0,2.30554 2.34202,0 2.34202,0 2.34204,-2.30554 2.34205,0 0,2.30554 2.34203,0 2.34194,0 0,-2.30554 2.34207,0 2.34207,-2.30553 2.34207,2.30553 0,2.30554 2.3419,0 0,2.3055 0,2.30559 z"
       id="path152"
       inkscape:connector-curvature="0"
       n="Uncastillo" />
    <path
       d="m 371.73769,287.25403 -2.34203,9.22211 -2.34211,4.61106 0,2.3055 0,2.30559 -2.3419,0 0,2.30551 0,4.61102 0,4.61109 -2.34202,2.30546 0,4.61112 -2.34212,0 0,2.3055 -4.68401,11.5277 -4.68406,6.91654 -2.34205,4.61112 0,2.30552 -2.34196,0 -16.39429,6.91655 -2.34195,2.30551 -2.34207,2.30547 0,2.30563 -2.34202,4.61099 -2.34207,-2.30548 -2.34193,2.30548 -4.6841,0 -4.68401,0 -2.34207,0 -2.34206,0 -4.68399,0 -2.34202,-2.30548 -4.68414,0 -9.36806,-9.22212 -9.36815,-6.91655 0,-2.30552 0,-2.30563 4.68411,-2.30549 0,-2.30553 2.34205,0 4.68407,-11.52769 2.34202,-4.61102 2.34203,0 4.68401,-16.13865 16.39419,-9.22214 4.68409,-2.30556 7.02603,-2.3055 2.34202,-2.30547 2.34207,0 2.34195,0 2.34206,0 2.34211,0 0,-2.3056 4.68397,-4.61104 2.34204,-2.30551 4.68411,-2.30555 4.68401,-2.30547 2.34204,0 4.68401,-2.30552 2.34202,2.30552 2.34212,0 2.34202,2.30547 2.3419,0 0,2.30555 2.34211,0 0,2.30551 2.34203,0 z"
       id="path158"
       inkscape:connector-curvature="0"
       n="Castiliscar" />
    <path
       d="m 772.2242,434.8078 0,2.30559 -2.34207,2.30554 0,2.30547 -2.34198,2.30552 -2.34201,2.30551 -2.34206,4.61102 0,2.30562 -2.34204,0 0,2.30558 0,2.30548 -2.34194,4.611 -2.34207,2.30553 -2.34206,4.61112 0,2.30553 -2.34208,2.30549 -2.34191,0 2.34191,2.30555 -2.34191,2.30548 0,2.30561 2.34191,0 0,2.30551 0,2.30547 0,2.30556 2.34208,2.3055 0,2.30552 2.34206,2.30546 2.34207,0 0,4.61121 0,2.30547 2.34194,2.30554 2.34204,0 0,2.30551 2.34206,0 0,2.30548 0,2.30563 0,4.61101 2.34201,2.30554 0,6.9166 0,2.30553 2.34198,4.61101 0,2.30552 -2.34198,2.3055 0,-2.3055 -2.34201,0 -2.34206,0 -4.68398,-4.61103 -2.34207,-2.3055 -7.02605,-4.6111 -2.34206,0 -2.34207,4.6111 0,2.3055 0,2.30551 -7.02603,2.30552 -2.34204,0 -2.34209,0 0,2.3055 -2.34192,2.30554 -2.34206,-2.30554 0,-2.3055 -2.34206,0 -2.34196,0 -2.3421,0 -2.34204,0 -2.34204,0 -2.34191,0 -2.34203,0 0,2.3055 0,2.30554 -2.34211,0 -2.34202,0 -2.34199,-2.30554 -2.34203,2.30554 0,-2.30554 -2.34203,0 0,2.30554 0,2.30563 0,2.30551 0,2.30551 0,2.30551 0,2.30551 0,2.30547 2.34203,0 2.34203,4.61117 2.34199,0 0,2.30547 -2.34199,4.61106 0,4.61109 2.34199,4.61102 -2.34199,4.6111 2.34199,4.61097 -2.34199,4.61114 2.34199,0 2.34202,0 4.68414,0 0,2.3055 0,2.30553 0,2.30554 2.34191,0 0,2.30547 -2.34191,2.30562 0,2.30551 7.02599,0 2.3421,0 0,2.30551 2.34196,0 4.68412,4.61102 0,4.61102 0,2.30563 0,2.30547 2.34192,2.30558 4.68413,2.30551 4.684,-2.30551 2.34203,0 0,-2.30558 2.34207,-2.30547 2.34206,0 2.34191,-2.30563 2.34208,0 2.34206,-2.30552 2.34207,0 2.34194,-2.3055 2.34204,-2.30552 2.34206,-2.3055 2.34201,0 4.68405,-2.30551 0,2.30551 0,2.3055 0,2.30552 0,2.3055 0,2.30552 0,2.30563 2.34203,4.61105 0,2.30551 2.34206,2.30551 4.68395,2.30549 0,4.61112 2.34209,2.30547 0,2.30553 0,4.61103 0,2.30567 2.34208,0 -2.34208,2.30551 -4.68412,2.30546 -2.34192,2.3055 -2.34206,2.30557 -2.34203,2.30546 -2.34207,2.3055 -2.34198,2.30568 -4.68407,2.30549 0,2.30552 -2.34204,4.61101 0,2.30551 -4.68401,6.91662 0,2.30554 -2.34206,4.61102 -2.34208,2.30562 0,2.3055 -2.34191,2.30549 -2.34206,2.30554 0,2.30551 -2.34207,0 -2.34203,0 -2.34197,2.30548 -4.68407,2.30557 -2.34209,-2.30557 -2.34192,0 -7.02608,0 -7.02618,0 0,-6.91653 -2.34191,0 -2.34203,-2.30549 -2.34211,-2.3055 4.68414,0 2.34191,-9.22218 -4.68394,0 0,-2.30555 -4.68413,-2.30548 -2.34199,-2.30559 0,6.91662 -2.34203,0 -2.34203,2.30554 -2.3421,-2.30554 -2.34195,2.30554 -2.34208,-2.30554 0,-4.61103 -2.342,0 0,-2.30559 -4.68397,0 -4.68413,-4.611 0,6.91659 -2.34203,2.30548 0,6.91659 -4.68402,4.61114 -4.68417,0 -4.68394,-4.61114 2.34204,-2.3055 -2.34204,-4.61109 -2.34205,-2.30548 -2.34204,2.30548 -2.34199,0 -2.34205,2.30555 -7.02602,2.30554 2.34191,2.3055 -9.36809,2.30552 -4.68398,4.61112 0,2.30549 2.34202,4.61105 -2.34202,4.61105 -2.34207,0 -4.68401,-2.30557 -2.34207,0 -4.68406,2.30557 -2.34198,0 -2.34203,0 -2.34205,0 -2.34205,0 -4.68403,4.6111 -2.34207,-2.30547 -2.34194,0 -4.68406,-2.30563 -4.68405,-4.61105 -11.71017,-2.30551 -2.34207,0 -4.68393,-2.30554 -2.34207,0 -2.34207,-6.91661 2.34207,-4.61102 2.34207,-13.83316 -2.34207,-4.61104 0,-4.61117 0,-2.3055 2.34207,0 0,-2.30546 0,-2.30557 0,-2.3055 0,-2.30546 2.3419,0 0,2.30546 0,-2.30546 2.34203,-2.30551 2.34207,0 2.34207,0 2.34199,0 0,2.30551 0,2.30546 -2.34199,2.3055 2.34199,0 2.34202,0 0,-2.3055 0,-2.30546 2.34202,0 2.34207,0 0,-2.30551 2.34198,0 4.6841,0 0,-2.30567 2.34203,0 0,2.30567 2.34194,0 2.34207,0 2.34207,0 2.34196,0 2.34205,2.30551 0,2.30546 4.68408,0 2.34198,0 2.34204,0 2.34202,0 2.34207,0 4.68401,0 4.68409,0 4.68401,-2.30546 2.34207,0 2.34206,0 2.34191,0 2.34208,0 2.34203,-4.61118 2.34205,-2.30551 2.34199,0 0,-2.30552 2.34204,0 0,-2.30553 0,-2.30547 0,-4.61112 0,-2.30549 0,-4.61102 -2.34204,-4.61105 0,-4.61115 -2.34199,0 -2.34205,0 0,-2.3055 0,-2.30552 -4.68411,-2.3055 -2.34191,0 -2.34206,0 0,2.3055 -2.34207,0 0,2.30552 0,2.3055 -2.34205,0 0,2.30552 0,-2.30552 -2.34196,0 0,2.30552 -4.68409,2.30563 -2.3421,2.30547 -2.34191,2.30558 -2.34207,0 -2.34202,4.61102 0,2.30549 0,2.30559 0,2.30553 -7.02605,-4.61112 -4.6841,-4.611 -2.34196,0 -2.34207,0 -7.02604,-2.30551 -2.34203,-2.30558 -2.34207,-4.6111 -2.34198,0 -2.34207,0 -4.68404,2.30563 0,-4.61115 0,-2.3055 0,-2.30552 -2.34199,-4.61101 0,-2.30551 0,-2.30562 0,-2.30547 0,-4.61107 -2.34207,-4.61101 0,-4.6111 -2.34207,-2.3055 -2.34203,-9.22212 -2.3419,-2.30563 0,2.30563 -2.34207,0 -2.34207,2.30556 -2.34207,0 0,-2.30556 -2.34194,0 -2.34203,0 0,-2.30563 -2.34205,2.30563 2.34205,-2.30563 0,-2.30546 -2.34205,0 0,-2.30551 -2.34204,0 -2.34202,-2.30555 0,-2.30547 0,-2.30554 0,-2.30563 -2.34202,-2.30547 -2.34203,-2.30551 0,-2.30551 4.68405,-2.30551 0,-2.30551 2.34202,-2.30563 2.34204,0 0,-2.30554 2.34205,0 2.34203,-2.3055 2.34194,0 2.34207,0 2.34207,0 0,-2.30552 0,-2.30551 -2.34207,-2.3055 0,-2.30553 2.34207,-4.61103 0,-2.30557 0,-2.30554 2.34207,-4.61101 2.3419,-4.61111 0,-2.30551 0,-2.30554 2.34203,-2.30547 2.34207,-2.30552 0,-2.30569 2.34207,0 0,-2.30546 2.34199,0 0,-2.30552 2.34202,-2.3055 2.34202,-2.30556 2.34207,0 2.34198,0 0,-2.30547 0,-2.30551 2.34207,0 0,-2.30561 0,-2.30548 2.34203,-2.30555 0,-2.30549 2.34203,-2.30553 0,-2.3055 0,-2.30562 0,-2.30553 0,-2.3055 2.34194,0 0,-2.3055 2.34207,0 0,-2.30548 2.34207,0 0,-2.30558 2.34196,-4.61109 0,-2.30555 0,-2.30551 0,-2.30552 0,-2.30547 2.34205,-2.30554 0,-2.30559 2.34205,0 0,-2.30551 2.34203,0 2.34198,2.30551 2.34204,0 0,2.30559 0,2.30554 2.34202,0 2.34207,2.30547 0,2.30552 2.34191,2.30551 2.3421,0 2.34207,0 2.34202,0 0,2.30555 2.34196,0 2.34205,2.30547 2.34207,0 2.34206,0 2.34191,0 2.34208,0 4.68408,2.30562 2.34199,2.30558 0,2.30548 2.34204,0 2.34205,0 2.34204,-2.30548 2.3419,0 2.34215,-2.30558 0,-2.30562 2.34202,-2.30547 2.34207,2.30547 2.34195,0 2.34203,2.30562 2.34205,0 2.34208,0 2.34195,0 2.34202,0 2.342,2.30558 2.34208,2.30548 -2.34208,2.3055 0,2.3055 2.34208,0 0,2.30553 2.34195,2.30562 2.3421,0 2.34203,0 0,-2.30562 0,-2.30553 2.34203,-2.3055 -2.34203,0 0,-2.3055 -2.34203,0 0,-2.30548 0,-2.30558 2.34203,-2.30562 0,-2.30547 0,-2.30555 -2.34203,0 0,-2.30551 0,-2.30552 0,-2.30547 0,-2.30554 2.34203,0 0,-2.30559 0,-2.30551 0,-2.30554 2.34203,-2.3055 0,-2.30548 0,-2.30551 2.34199,0 0,-2.30566 2.34202,0 0,-2.30548 2.34211,-2.3055 0,-2.3056 2.34203,0 2.34191,0 2.34204,0 2.34204,2.3056 2.3421,0 0,2.3055 2.34196,0 0,2.30548 2.34206,0 2.34206,2.30566 0,-2.30566 2.34192,0 0,-2.30548 2.34209,0 0,-2.3055 2.34204,0 2.34203,-2.3056 2.34197,0 0,-2.30546 2.34203,2.30546 2.34207,2.3056 0,2.3055 2.34206,0 0,2.30548 2.34191,0 2.34208,2.30566 2.34206,0 2.34207,0 2.34194,0 0,2.30551 0,2.30548 2.34204,0 2.34206,2.3055 2.34201,2.30554 2.34198,2.30551 2.34207,0 z"
       id="path160"
       inkscape:connector-curvature="0"
       n="Luna" />
    <path
       d="m 322.5551,370.25302 2.34202,2.3055 2.34207,2.30558 0,2.30548 2.34195,6.91665 2.34206,2.3055 2.34211,4.61105 2.34203,0 0,2.30559 2.34194,0 2.34204,2.30556 0,2.30546 2.34201,0 2.3421,0 4.68401,0 0,2.30554 2.34204,2.30551 0,4.61102 2.34202,0 0,4.6111 14.05216,11.5277 2.34203,4.61099 9.36811,6.91655 0,2.30559 -14.05225,9.22204 -11.71005,9.22222 -7.02611,2.30548 -7.02607,2.3055 -4.68398,2.3055 -2.34203,6.91665 0,2.30553 0,2.30549 0,2.30555 0,4.61109 -2.34211,4.61098 -4.68401,6.91658 0,2.30546 -4.68409,0 -9.3681,-4.61098 0,2.30552 -7.02608,0 -2.34206,0 -4.68399,0 -2.34202,0 -4.68414,0 -7.02598,0 -4.68407,2.30546 -4.68412,2.30569 -4.68398,0 -2.34206,2.30552 -4.68409,0 -4.68402,2.30547 -9.36808,4.61105 -11.71018,2.30548 -4.68398,2.30563 -2.34207,2.30554 -7.02605,2.30547 -2.34202,2.30554 -4.68409,2.30557 -7.02612,4.61103 -2.34195,-4.61103 0,-4.61111 -2.34206,-2.30547 0,-2.30554 0,-6.91662 0,-4.61101 16.39422,-29.97189 0,-13.83313 4.68409,-9.22222 0,-2.30551 0,-2.30552 -2.34207,-2.30547 4.68399,-2.30554 2.34206,-9.22214 -2.34206,-2.30548 0,-2.30551 -2.34192,0 -2.34207,-4.61114 0,-2.3055 -2.34202,0 0,-2.3056 0,-2.30546 2.34202,-2.30551 2.34207,-2.30559 7.02605,-9.22207 2.34203,0 2.34195,-4.61102 2.34206,-4.61114 2.34201,-6.91649 14.05216,-20.74981 7.02605,-9.22206 9.36809,-2.30552 0,2.30552 9.36815,6.91655 9.36806,9.22212 4.68414,0 2.34202,2.30548 4.68399,0 2.34206,0 2.34207,0 4.68401,0 4.6841,0 2.34193,-2.30548 2.34207,2.30548 z"
       id="path182"
       inkscape:connector-curvature="0"
       n="Sádaba" />
    <path
       d="m 523.96935,372.55852 2.34203,2.30558 2.34208,0 0,2.30548 -2.34208,0 0,2.30562 0,2.30554 -2.34203,2.30549 0,2.3055 -2.34202,0 0,2.3055 0,2.30555 -2.34199,4.61115 -2.34202,2.30546 0,2.30554 -2.34206,0 -2.34202,0 -2.34193,0 0,-2.30554 -2.3421,0 -4.6841,4.61105 0,4.61102 -2.34199,0 -2.34202,4.6111 -2.34206,0 0,2.30546 2.34206,2.3056 0,2.3055 -2.34206,2.30548 0,4.61117 0,2.30548 2.34206,2.3055 0,2.30554 2.34202,0 0,2.30551 2.34199,2.30559 0,2.30554 0,2.30547 0,2.30552 2.34208,2.30551 0,2.30555 0,2.30547 0,2.30562 0,2.30558 -2.34208,2.30548 0,2.3055 0,2.3055 -2.34199,0 0,2.30553 -2.34202,-2.30553 -2.34206,0 -2.34207,0 -2.34194,0 0,2.30553 2.34194,2.30562 0,2.3055 0,2.30553 2.34207,2.30549 0,2.30555 0,2.30548 0,2.30561 0,2.30551 2.34206,2.30547 -2.34206,2.30556 0,2.3055 0,2.30552 -2.34207,0 0,2.30546 -2.34194,2.30569 -2.34203,0 -2.34202,2.30552 -4.68406,4.61101 -2.34207,2.30551 0,2.30548 -2.34203,0 -2.3419,2.30563 -2.34211,0 0,2.30554 -2.34203,0 0,2.30547 -2.34211,0 -2.34189,-2.30547 -2.34202,-2.30554 -2.34206,-2.30563 -2.34204,-2.30548 -4.68405,-2.30551 -2.34204,0 -4.68397,-2.30554 0,-2.30547 -2.34214,0 0,-2.30552 -2.34202,0 -2.34202,0 -2.34199,0 0,-2.30569 -2.34202,0 -2.34208,0 -2.34206,0 -2.34191,0 -2.34208,0 -2.34202,2.30569 -2.34206,0 -2.34199,0 -7.02616,4.61099 -2.3419,2.30554 -4.68414,2.30551 -4.68396,6.91665 -4.68411,2.30547 -14.05214,4.61111 -2.34207,-4.61111 -4.68397,-4.61101 -4.6841,-4.61111 -11.71017,-4.61105 -7.02605,0 -2.34205,0 -7.02607,-2.30547 -4.68398,-2.30552 -7.0262,0 -2.34195,-2.30569 0,-2.30546 4.68401,-6.91658 2.34211,-4.61098 0,-4.61109 0,-2.30555 0,-2.30549 0,-2.30553 2.34203,-6.91665 4.68398,-2.3055 7.02607,-2.3055 7.02611,-2.30548 11.71005,-9.22222 14.05225,-9.22204 0,-2.30559 2.34195,-2.30551 2.34207,0 2.34203,-2.30554 2.34206,0 0,-2.3055 0,-2.30548 2.34197,-2.30551 0,-2.30566 2.34206,-2.30548 0,-2.3055 2.34206,0 0,-2.3056 4.68395,-2.30546 2.34206,-2.30551 2.34203,0 2.34211,0 2.3419,0 2.34204,-2.30559 2.34206,0 2.34206,0 2.34199,0 0,-2.3055 2.34206,0 2.34202,0 2.34208,0 2.34191,0 2.34206,0 2.34208,2.3055 2.34202,2.30559 0,2.30551 2.34199,0 0,-2.30551 2.34202,-2.30559 0,-2.3055 2.34202,0 2.34214,0 0,-2.30552 2.34192,0 0,2.30552 2.34205,-2.30552 2.34204,0 2.34203,0 0,-2.30551 2.34202,0 2.34204,-2.30554 0,-2.30546 2.34206,-2.30556 2.34202,0 2.34189,-2.30559 2.34211,0 2.34203,0 2.34211,0 2.3419,0 0,-2.30555 2.34203,2.30555 0,-2.30555 2.34207,0 2.34207,0 2.34199,-2.3055 2.34202,-2.3055 2.34203,-2.30549 2.34194,-2.30554 2.34207,0 2.34206,-2.30562 2.34202,-2.30548 0,-2.30558 2.34199,-2.3055 0,-2.30548 2.34208,-2.30551 0,2.30551 2.34202,0 2.3421,0 2.34193,0 2.34202,2.30548 2.34206,0 2.34202,0 2.34199,2.3055 2.34202,0 z m -196.73016,156.77596 4.68401,6.91653 4.68414,0 2.34194,0 2.34204,2.30554 2.34201,2.30563 2.3421,0 2.34196,0 0,2.30551 2.34205,2.30551 2.34204,2.30551 2.34202,2.30551 0,2.30547 0,2.30563 0,2.30554 -4.68406,2.30547 0,2.30555 2.34204,2.30551 0,2.30546 2.34202,2.30563 2.34199,2.30556 0,2.30546 2.34202,0 0,2.30552 -2.34202,4.61108 0,4.6111 2.34202,4.61101 0,2.30553 0,4.61101 2.34212,0 0,6.91664 0,2.3055 -4.68414,2.30552 -2.34199,0 -7.02611,0 0,-2.30552 -2.34196,-4.61101 0,-2.30551 0,-2.30562 -2.3421,-6.91654 -2.34201,-4.61101 0,-2.30563 0,-2.30547 0,-2.3055 -2.34204,-4.6111 -2.34194,-6.91665 -2.34203,-4.61097 0,-2.30555 0,-4.61101 -2.34211,-4.6111 0,-2.30551 -2.34206,-4.61102 0,-2.30551 -2.34195,-2.30563 -2.34207,-4.61104 0,-2.30552 -2.34202,-4.61101 4.68409,2.3055 z"
       id="path192"
       inkscape:connector-curvature="0"
       n="Biota" />
    <path
       d="m 629.36061,386.39173 2.34191,0 0,2.3055 0,2.30555 0,2.30559 0,2.30556 0,2.30546 -2.34191,2.30554 0,2.30551 0,2.30552 0,2.3055 0,2.30559 -2.34207,0 0,2.30551 -2.34202,0 0,2.30546 -2.34204,4.6111 0,2.30548 0,2.30566 -2.34198,2.30551 0,2.30548 0,2.3055 0,2.30554 -2.34203,0 0,2.30551 -2.34205,0 0,2.30559 -2.34205,2.30554 0,2.30547 0,2.30552 0,2.30551 0,2.30555 -2.34196,4.61109 0,2.30558 -2.34207,0 0,2.30548 -2.34207,0 0,2.3055 -2.34194,0 0,2.3055 0,2.30553 0,2.30562 0,2.3055 -2.34203,2.30553 0,2.30549 -2.34203,2.30555 0,2.30548 0,2.30561 -2.34207,0 0,2.30551 0,2.30547 -2.34198,0 -2.34207,0 -2.34202,2.30556 -2.34202,2.3055 0,2.30552 -2.34199,0 0,2.30546 -2.34207,0 0,2.30569 -2.34207,2.30552 -2.34203,2.30547 0,2.30554 0,2.30551 -2.3419,4.61111 -2.34207,4.61101 0,2.30554 0,2.30557 -2.34207,4.61103 0,2.30553 2.34207,2.3055 0,2.30551 0,2.30552 -2.34207,0 -2.34207,0 -2.34194,0 -2.34203,2.3055 -2.34205,0 0,2.30554 -2.34204,0 0,-2.30554 0,-2.3055 0,-2.30552 2.34204,0 0,-2.30551 -2.34204,-2.3055 0,-2.30553 -2.34202,0 0,-2.30557 -2.34202,-2.30546 0,-2.30557 -2.34203,0 0,-2.30554 -2.34208,0 0,-2.30547 -2.34194,-2.30554 0,-2.30563 -2.34211,-2.30548 0,-2.30551 0,-2.30554 0,-2.30547 -2.34203,-2.30552 0,-2.30569 0,-2.30546 0,-2.30552 2.34203,0 0,-2.3055 2.34211,0 0,-2.30556 2.34194,0 0,-2.30547 -2.34194,0 0,-2.30551 2.34194,0 0,-2.30561 2.34208,0 0,-2.30548 0,-2.30555 2.34203,-2.30549 0,-2.30553 0,-2.3055 0,-2.30562 2.34202,-2.30553 0,-2.3055 2.34202,0 0,-2.3055 0,-2.30548 2.34204,0 0,-2.30558 2.34205,-2.30562 0,-2.30547 2.34203,0 0,-2.30555 -2.34203,-2.30551 0,-4.61099 0,-2.30554 -2.34205,0 0,-2.30559 2.34205,-2.30551 0,-2.30554 0,-2.3055 0,-2.30548 2.34203,0 0,-2.30551 -2.34203,0 0,-2.30566 -2.34205,-2.30548 2.34205,-2.3055 2.34203,0 0,-2.3056 0,-2.30546 0,-2.30551 0,-2.30559 0,-2.3055 2.34194,0 0,-2.30552 0,-2.30551 -2.34194,0 0,-2.30554 0,-2.30546 4.68401,0 0,-2.30556 2.34207,0 2.34207,-2.30559 2.3419,0 2.34203,-2.30555 2.34207,-2.3055 0,-2.3055 2.34207,0 2.34199,-2.30549 2.34202,0 2.34202,0 0,-2.30554 2.34207,0 2.34198,2.30554 2.34207,0 2.34203,0 2.34203,2.30549 2.34194,0 2.34207,0 2.34207,-2.30549 0,-2.30554 0,-2.30562 2.34196,0 0,-2.30548 2.34205,-2.30558 2.34205,-2.3055 2.34203,0 0,-2.30548 2.34198,0 0,2.30548 2.34204,2.3055 0,2.30558 0,2.30548 0,2.30562 2.34202,0 0,2.30554 0,2.30549 2.34207,0 0,2.3055 z"
       id="path196"
       inkscape:connector-curvature="0"
       n="Orés" />
    <path
       d="m 699.62139,388.69723 0,2.30555 0,2.30559 0,2.30556 -2.3421,0 0,2.30546 0,2.30554 0,2.30551 2.3421,0 0,2.30552 0,2.3055 0,2.30559 -2.3421,0 -2.34195,4.61097 0,2.3056 -2.34208,0 -2.342,2.3055 0,2.30548 -2.34202,0 0,2.30566 -2.34195,0 2.34195,0 0,2.30551 -2.34195,0 0,2.30548 -2.34208,2.3055 -2.34205,2.30554 0,2.30551 -2.34203,0 -2.34195,2.30559 2.34195,2.30554 -2.34195,0 0,2.30547 -2.34207,0 0,2.30552 0,2.30551 0,2.30555 -2.34202,2.30547 0,2.30562 -2.34215,2.30558 -2.3419,0 -2.34204,2.30548 -2.34205,0 -2.34204,0 0,-2.30548 -2.34199,-2.30558 -4.68408,-2.30562 -2.34208,0 -2.34191,0 -2.34206,0 -2.34207,0 -2.34205,-2.30547 -2.34196,0 0,-2.30555 -2.34202,0 -2.34207,0 -2.3421,0 -2.34191,-2.30551 0,-2.30552 -2.34207,-2.30547 -2.34202,0 0,-2.30554 0,-2.30559 -2.34204,0 -2.34198,-2.30551 0,-2.30554 0,-2.3055 0,-2.30548 2.34198,-2.30551 0,-2.30566 0,-2.30548 2.34204,-4.6111 0,-2.30546 2.34202,0 0,-2.30551 2.34207,0 0,-2.30559 0,-2.3055 0,-2.30552 0,-2.30551 2.34191,-2.30554 0,-2.30546 0,-2.30556 0,-2.30559 0,-2.30555 0,-2.3055 -2.34191,0 0,-2.3055 2.34191,2.3055 2.3421,-2.3055 2.34207,0 2.34202,0 2.34196,0 2.34205,-2.30549 2.34207,0 0,-2.30554 2.34206,0 2.34191,0 2.34208,0 2.34203,0 2.34205,0 2.34199,-2.30562 4.68409,2.30562 2.34204,0 2.3419,2.30554 2.34215,2.30549 4.68409,0 4.68398,-2.30549 2.34205,-2.30554 2.34208,2.30554 2.34195,2.30549 2.34202,2.3055 2.342,0 4.68403,2.3055 2.3421,0 z"
       id="path198"
       inkscape:connector-curvature="0"
       n="El Frago" />
    <path
       d="m 355.3435,411.75256 0,-4.6111 -2.34202,0 0,-4.61102 -2.34204,-2.30551 0,-2.30554 2.34204,-4.61102 0,-2.30559 2.34202,0 2.34199,2.30559 0,-2.30559 2.34202,-2.30555 2.34212,-2.3055 2.34202,2.3055 2.3419,0 2.34211,0 2.34203,0 0,2.30555 2.34207,0 0,2.30559 2.34194,0 0,2.30556 2.34203,0 0,2.30546 0,2.30554 0,2.30551 -4.68397,2.30552 -4.6841,0 0,2.3055 -4.68401,4.6111 -4.68414,0 -4.68401,0 z"
       id="path204"
       inkscape:connector-curvature="0"
       n="Layana" />
    <path
       d="m 561.44182,418.66912 2.34205,2.30548 0,2.30566 2.34203,0 0,2.30551 -2.34203,0 0,2.30548 0,2.3055 0,2.30554 -2.34205,2.30551 0,2.30559 2.34205,0 0,2.30554 0,4.61099 2.34203,2.30551 0,2.30555 -2.34203,0 0,2.30547 -2.34205,2.30562 0,2.30558 -2.34204,0 0,2.30548 0,2.3055 -2.34202,0 0,2.3055 -2.34202,2.30553 0,2.30562 0,2.3055 0,2.30553 -2.34203,2.30549 -2.34208,0 -4.68405,-2.30549 -2.34203,0 -2.342,0 -2.34196,0 -2.34202,0 0,-2.30553 -2.34203,-2.3055 0,-2.30562 0,-2.30553 -2.34211,-2.3055 0,-2.3055 0,-2.30548 -2.34197,-2.30558 0,-4.61109 0,-2.30555 2.34197,-2.30551 0,-2.30552 0,-4.61101 -2.34197,0 0,-2.30559 0,-2.30551 0,-2.30554 -2.34208,0 0,-2.3055 0,-2.30548 0,-2.30551 0,-2.30566 -2.34203,0 0,-2.30548 -2.34202,-2.3055 0,-2.3056 2.34202,-2.30546 0,-2.30551 0,-2.30559 2.34203,0 0,-2.3055 2.34208,-4.61103 0,-2.30554 0,-2.30546 2.34197,0 2.34211,-2.30556 2.34203,0 2.34202,0 2.34196,0 2.342,2.30556 2.34203,2.30546 2.34211,2.30554 2.34194,2.30551 2.34208,0 0,2.30552 2.34203,0 -2.34203,2.3055 0,2.30559 2.34203,0 0,2.30551 0,2.30546 2.34202,0 2.34202,0 2.34204,2.3056 0,2.3055 z"
       id="path208"
       inkscape:connector-curvature="0"
       n="Asín" />
    <path
       d="m 575.49405,644.61095 2.3419,0 0,-4.61118 0,-2.30551 0,-2.30552 -4.68397,-4.611 0,-2.30553 0,-2.30559 0,-2.30549 2.34207,0 0,-2.30551 2.3419,0 2.34203,0 2.34207,0 0,-2.30551 2.34207,-2.30558 2.34199,-2.30547 4.68404,-2.30563 2.34207,0 2.34198,0 2.34207,4.6111 2.34203,2.30558 7.02604,2.30551 2.34207,0 2.34196,0 4.6841,4.611 7.02605,4.61112 0,-2.30553 0,-2.30559 0,-2.30549 2.34202,-4.61102 2.34207,0 2.34191,-2.30558 2.3421,-2.30547 4.68409,-2.30563 0,-2.30552 2.34196,0 0,2.30552 0,-2.30552 2.34205,0 0,-2.3055 0,-2.30552 2.34207,0 0,-2.3055 2.34206,0 2.34191,0 4.68411,2.3055 0,2.30552 0,2.3055 2.34205,0 2.34199,0 0,4.61115 2.34204,4.61105 0,4.61102 0,2.30549 0,4.61112 0,2.30547 0,2.30553 -2.34204,0 0,2.30552 -2.34199,0 -2.34205,2.30551 -2.34203,4.61118 -2.34208,0 -2.34191,0 -2.34206,0 -2.34207,0 -4.68401,2.30546 -4.68409,0 -4.68401,0 -2.34207,0 -2.34202,0 -2.34204,0 -2.34198,0 -4.68408,0 0,-2.30546 -2.34205,-2.30551 -2.34196,0 -2.34207,0 -2.34207,0 -2.34194,0 0,-2.30567 -2.34203,0 0,2.30567 -4.6841,0 -2.34198,0 0,2.30551 -2.34207,0 -2.34202,0 0,2.30546 0,2.3055 -2.34202,0 -2.34199,0 2.34199,-2.3055 0,-2.30546 0,-2.30551 -2.34199,0 -2.34207,0 -2.34207,0 -2.34203,2.30551 0,2.30546 0,-2.30546 -2.3419,0 z"
       id="path220"
       inkscape:connector-curvature="0"
       n="Erla" />
    <path
       d="m 526.31138,427.89125 0,2.3055 2.34208,0 0,2.30554 0,2.30551 0,2.30559 2.34197,0 0,4.61101 0,2.30552 -2.34197,2.30551 0,2.30555 0,4.61109 2.34197,2.30558 0,2.30548 0,2.3055 2.34211,2.3055 0,2.30553 0,2.30562 2.34203,2.3055 0,2.30553 2.34202,0 2.34196,0 2.342,0 2.34203,0 4.68405,2.30549 2.34208,0 0,2.30555 0,2.30548 -2.34208,0 0,2.30561 -2.34194,0 0,2.30551 2.34194,0 0,2.30547 -2.34194,0 0,2.30556 -2.34211,0 0,2.3055 -2.34203,0 0,2.30552 0,2.30546 0,2.30569 2.34203,2.30552 0,2.30547 0,2.30554 0,2.30551 2.34211,2.30548 0,2.30563 2.34194,2.30554 0,2.30547 2.34208,0 0,2.30554 2.34203,0 0,2.30557 2.34202,2.30546 0,2.30557 2.34202,0 0,2.30553 2.34204,2.3055 0,2.30551 -2.34204,0 0,2.30552 0,2.3055 0,2.30554 -2.34202,2.30563 0,2.30551 -4.68405,2.30551 0,2.30551 2.34203,2.30551 2.34202,2.30547 0,2.30563 0,2.30554 0,2.30547 2.34202,2.30555 2.34204,0 0,2.30551 2.34205,0 0,2.30546 -2.34205,2.30563 2.34205,-2.30563 0,2.30563 2.34203,0 2.34194,0 0,2.30556 2.34207,0 2.34207,-2.30556 2.34207,0 0,-2.30563 2.3419,2.30563 2.34203,9.22212 2.34207,2.3055 0,4.6111 2.34207,4.61101 0,4.61107 0,2.30547 0,2.30562 0,2.30551 2.34199,4.61101 0,2.30552 0,2.3055 0,4.61115 -2.34199,2.30547 -2.34207,2.30558 0,2.30551 -2.34207,0 -2.34203,0 -2.3419,0 0,2.30551 -2.34207,0 0,2.30549 0,2.30559 0,2.30553 4.68397,4.611 0,2.30552 0,2.30551 0,4.61118 -2.3419,0 0,2.30546 0,2.3055 0,2.30557 0,2.30546 -2.34207,0 0,2.3055 0,4.61117 2.34207,4.61104 -2.34207,13.83316 -2.34207,4.61102 2.34207,6.91661 -4.68414,0 -4.68397,2.30554 -2.34205,0 0,2.30551 -2.34204,2.30548 0,2.30557 0,2.30563 2.34204,2.30547 2.34205,2.30551 -2.34205,0 -2.34204,0 -2.34202,0 0,2.30555 -2.34202,0 -2.34203,2.30547 -4.68402,2.30551 -2.34211,4.6111 -2.34203,0 -2.342,0 -2.34196,0 0,2.30554 -2.34202,0 -2.34203,0 0,2.3055 0,2.30556 -2.34211,2.30547 0,2.30561 0,2.30556 0,2.30548 0,2.30549 -2.34197,4.61107 0,2.3055 2.34197,2.30559 0,2.3055 0,2.30551 0,4.61099 -2.34197,4.61117 0,2.30551 0,2.30555 0,2.3055 -2.34208,2.30552 2.34208,2.30546 -2.34208,2.30566 0,2.30548 -2.34203,0 0,2.3055 -2.34202,2.3056 -2.34199,0 -2.34202,0 -2.34206,-2.3056 -2.34202,0 -2.34193,0 -2.3421,0 0,-2.3055 -4.6841,0 -2.34199,0 -2.34202,2.3055 -2.34206,0 -2.34207,0 -2.34194,0 -2.34203,0 -2.34202,0 -2.34199,-2.3055 -2.34207,0 -2.34207,-2.30548 -2.34203,0 -4.68401,-2.30566 -2.34203,0 -2.34211,-2.30546 -2.34189,-2.30552 -2.34202,0 0,-2.3055 -2.34206,0 -7.02609,-2.30555 -9.36815,-2.30551 -2.34202,-2.30563 -4.68401,-2.30554 -2.34202,-2.30548 -7.02605,-2.30551 -9.36815,-2.30551 -9.36806,-2.3055 -4.68414,-11.52765 -9.36807,4.61101 0,2.30555 -9.36812,-2.30555 -16.39416,-4.61101 -2.34211,0 -18.73616,-6.91665 -2.34196,0 -7.02615,-2.30547 -9.36814,0 -7.02604,-2.30556 -2.34207,-2.3055 -4.68396,0 -2.34207,-2.30554 0,-2.30549 4.6841,-6.91659 -2.34203,-2.30555 0,-2.30551 -2.34207,-4.6111 0,-2.30557 -2.34202,-2.30548 -2.34199,0 0,-2.30551 0,-2.30554 0,-2.30549 2.34199,-4.61112 -4.68406,0 -2.34206,0 -4.68399,0 -2.34202,0 -2.34206,0 -2.34208,0 -4.68396,0 -2.34202,0 -2.34208,2.30562 -2.34199,0 -2.34205,0 -2.34207,0 -4.68398,-2.30562 -2.34206,-6.91656 -4.68409,-9.22213 -2.34195,-2.30549 -2.34207,-4.61104 -2.34203,0 0,-2.30549 0,-9.22221 0,-6.91647 -2.34199,-2.30567 -2.34202,0 -2.34204,-2.30551 -2.3421,-2.30552 -2.34191,-2.30553 -21.07827,-13.8331 0,-2.30558 0,-2.30547 2.34207,-9.22217 0,-2.3055 4.68398,-13.83318 -2.34206,-2.3055 0,-4.61114 -2.34192,0 -2.34207,-2.30547 2.34207,-4.61108 0,-2.30552 2.34192,-2.30546 0,-2.30556 0,-2.30563 0,-2.30546 0,-4.61106 2.34206,-4.61101 0,-2.30563 0,-2.30547 -2.34206,-2.30551 0,-4.61102 -2.34192,-2.30551 0,-2.30563 -7.02619,-6.91656 -2.34199,-2.30551 -2.34203,0 -4.68409,-4.61103 7.02612,-4.61103 4.68409,-2.30557 2.34202,-2.30554 7.02605,-2.30547 2.34207,-2.30554 4.68398,-2.30563 11.71018,-2.30548 9.36808,-4.61105 4.68402,-2.30547 4.68409,0 2.34206,-2.30552 4.68398,0 4.68412,-2.30569 4.68407,-2.30546 7.02598,0 4.68414,0 2.34202,0 4.68399,0 2.34206,0 7.02608,0 0,-2.30552 9.3681,4.61098 4.68409,0 2.34195,2.30569 7.0262,0 4.68398,2.30552 7.02607,2.30547 2.34205,0 7.02605,0 11.71017,4.61105 4.6841,4.61111 4.68397,4.61101 2.34207,4.61111 14.05214,-4.61111 4.68411,-2.30547 4.68396,-6.91665 4.68414,-2.30551 2.3419,-2.30554 7.02616,-4.61099 2.34199,0 2.34206,0 2.34202,-2.30569 2.34208,0 2.34191,0 2.34206,0 2.34208,0 2.34202,0 0,2.30569 2.34199,0 2.34202,0 2.34202,0 0,2.30552 2.34214,0 0,2.30547 4.68397,2.30554 2.34204,0 4.68405,2.30551 2.34204,2.30548 2.34206,2.30563 2.34202,2.30554 2.34189,2.30547 2.34211,0 0,-2.30547 2.34203,0 0,-2.30554 2.34211,0 2.3419,-2.30563 2.34203,0 0,-2.30548 2.34207,-2.30551 4.68406,-4.61101 2.34202,-2.30552 2.34203,0 2.34194,-2.30569 0,-2.30546 2.34207,0 0,-2.30552 0,-2.3055 2.34206,-2.30556 -2.34206,-2.30547 0,-2.30551 0,-2.30561 0,-2.30548 0,-2.30555 -2.34207,-2.30549 0,-2.30553 0,-2.3055 -2.34194,-2.30562 0,-2.30553 2.34194,0 2.34207,0 2.34206,0 2.34202,2.30553 0,-2.30553 2.34199,0 0,-2.3055 0,-2.3055 2.34208,-2.30548 0,-2.30558 0,-2.30562 0,-2.30547 0,-2.30555 -2.34208,-2.30551 0,-2.30552 0,-2.30547 0,-2.30554 -2.34199,-2.30559 0,-2.30551 0,2.30551 2.34199,0 0,2.30559 2.34208,0 2.34202,0 0,2.30554 2.3421,0 2.34193,-4.61113 4.68408,-2.30551 0,-2.30554 2.34202,0 2.34199,-4.61098 2.34202,0 2.34203,2.30548 z m -199.07219,101.44323 -4.68409,-2.3055 2.34202,4.61101 0,2.30552 2.34207,4.61104 2.34195,2.30563 0,2.30551 2.34206,4.61102 0,2.30551 2.34211,4.6111 0,4.61101 0,2.30555 2.34203,4.61097 2.34194,6.91665 2.34204,4.6111 0,2.3055 0,2.30547 0,2.30563 2.34201,4.61101 2.3421,6.91654 0,2.30562 0,2.30551 2.34196,4.61101 0,2.30552 7.02611,0 2.34199,0 4.68414,-2.30552 0,-2.3055 0,-6.91664 -2.34212,0 0,-4.61101 0,-2.30553 -2.34202,-4.61101 0,-4.6111 2.34202,-4.61108 0,-2.30552 -2.34202,0 0,-2.30546 -2.34199,-2.30556 -2.34202,-2.30563 0,-2.30546 -2.34204,-2.30551 0,-2.30555 4.68406,-2.30547 0,-2.30554 0,-2.30563 0,-2.30547 -2.34202,-2.30551 -2.34204,-2.30551 -2.34205,-2.30551 0,-2.30551 -2.34196,0 -2.3421,0 -2.34201,-2.30563 -2.34204,-2.30554 -2.34194,0 -4.68414,0 -4.68401,-6.91653 z"
       id="path226"
       inkscape:connector-curvature="0"
       n="Ejea de los Caballeros" />
    <path
       d="m 767.54015,536.25101 2.34198,2.30554 2.34207,2.30563 0,2.30551 0,4.61102 2.34203,2.30551 0,4.6111 -2.34203,2.30554 0,2.30547 0,2.30555 0,4.61097 0,2.30563 0,2.30556 0,2.30546 0,4.6111 0,2.3055 0,6.91661 0,4.61103 0,2.30554 0,2.30547 0,2.30562 0,2.30551 -4.68405,2.30551 -2.34201,0 -2.34206,2.3055 -2.34204,2.30552 -2.34194,2.3055 -2.34207,0 -2.34206,2.30552 -2.34208,0 -2.34191,2.30563 -2.34206,0 -2.34207,2.30547 0,2.30558 -2.34203,0 -4.684,2.30551 -4.68413,-2.30551 -2.34192,-2.30558 0,-2.30547 0,-2.30563 0,-4.61102 -4.68412,-4.61102 -2.34196,0 0,-2.30551 -2.3421,0 -7.02599,0 0,-2.30551 2.34191,-2.30562 0,-2.30547 -2.34191,0 0,-2.30554 0,-2.30553 0,-2.3055 -4.68414,0 -2.34202,0 -2.34199,0 2.34199,-4.61114 -2.34199,-4.61097 2.34199,-4.6111 -2.34199,-4.61102 0,-4.61109 2.34199,-4.61106 0,-2.30547 -2.34199,0 -2.34203,-4.61117 -2.34203,0 0,-2.30547 0,-2.30551 0,-2.30551 0,-2.30551 0,-2.30551 0,-2.30563 0,-2.30554 2.34203,0 0,2.30554 2.34203,-2.30554 2.34199,2.30554 2.34202,0 2.34211,0 0,-2.30554 0,-2.3055 2.34203,0 2.34191,0 2.34204,0 2.34204,0 2.3421,0 2.34196,0 2.34206,0 0,2.3055 2.34206,2.30554 2.34192,-2.30554 0,-2.3055 2.34209,0 2.34204,0 7.02603,-2.30552 0,-2.30551 0,-2.3055 2.34207,-4.6111 2.34206,0 7.02605,4.6111 2.34207,2.3055 4.68398,4.61103 2.34206,0 2.34201,0 0,2.3055 z"
       id="path272"
       inkscape:connector-curvature="0"
       n="Valpalmas" />
    <path
       d="m 833.11689,596.19475 0,2.30562 -2.34202,0 -2.34207,0 -2.34202,0 0,2.30551 2.34202,2.30551 4.68409,2.3055 0,2.30552 0,2.3055 0,2.30552 -2.34202,2.30563 -2.34207,2.30547 0,2.30558 0,2.30551 2.34207,2.30551 -44.49846,18.44431 -2.34208,0 0,-2.30567 0,-4.61103 0,-2.30553 -2.34209,-2.30547 0,-4.61112 -4.68395,-2.30549 -2.34206,-2.30551 0,-2.30551 -2.34203,-4.61105 0,-2.30563 0,-2.30552 0,-2.3055 0,-2.30552 0,-2.3055 0,-2.30551 0,-2.30551 0,-2.30562 0,-2.30547 0,-2.30554 0,-4.61103 0,-6.91661 0,-2.3055 0,-4.6111 4.68409,-2.30546 7.02604,0 7.02609,2.30546 7.02604,2.30552 4.68409,2.30558 2.34203,0 4.68401,2.3055 -4.68401,2.30547 -2.34203,2.30563 -2.34203,2.30551 -2.34206,4.61103 2.34206,0 2.34203,0 4.68398,0 4.68417,2.30554 4.68396,0 7.0262,0 4.68394,2.30547 4.68409,0 z"
       id="path292"
       inkscape:connector-curvature="0"
       n="Piedratajada" />
    <path
       d="m 830.77487,626.16662 2.34202,0 0,2.30559 -2.34202,0 0,2.30553 -2.34207,0 -2.34202,0 0,2.30547 0,2.30553 -2.34192,0 0,2.30552 2.34192,2.30551 0,2.30567 0,2.30551 2.34202,2.30546 2.34207,0 2.34202,2.3055 -2.34202,2.30557 -2.34207,0 0,2.30546 -4.68394,-2.30546 -2.3421,0 -2.34202,2.30546 0,2.3055 2.34202,2.30568 2.3421,0 0,2.30549 2.34192,0 0,2.30552 2.34202,0 -2.34202,2.30552 -2.34192,2.30549 0,2.30551 -2.3421,0 0,2.30559 2.3421,0 0,2.30548 2.34192,0 0,2.30555 0,2.30554 -2.34192,0 0,2.3055 -2.3421,2.30552 -2.34202,0 0,2.30562 -2.34208,0 -2.34194,0 -2.34202,2.3055 0,2.30549 2.34202,2.30554 -4.68413,2.30551 -4.68401,2.30548 -2.34203,0 -4.68409,-2.30548 -2.34196,0 -2.34206,-4.61105 -2.34202,-4.61099 -2.34202,-4.61114 0,-2.3055 0,-2.30554 -2.34199,-2.30555 0,-2.30548 0,-2.30559 0,-2.30551 0,-2.30549 0,-2.30552 0,-2.30552 -2.34208,-2.30549 0,-4.61118 2.34208,-11.5275 44.49846,-18.44431 0,2.30549 z"
       id="path306"
       inkscape:connector-curvature="0"
       n="Marracos" />
    <path
       d="m 716.01551,697.63797 0,2.30557 -2.34191,0 -2.34203,2.30563 -2.34211,2.30547 -2.34202,4.61106 0,2.30547 0,2.30551 -2.34199,2.30561 -2.34203,2.30549 0,2.30554 0,2.3055 -2.34203,0 0,2.30556 -2.3421,0 0,2.30547 -4.68403,2.30561 -2.342,4.61104 0,2.30549 -2.34202,2.30552 0,2.30555 2.34202,2.3055 0,2.30559 0,6.91652 -2.34202,0 -7.02608,0 -2.34203,0 -2.34195,0 -2.34207,-2.30551 -2.34202,0 -2.34215,-2.30551 -2.3419,0 -2.34204,0 -2.34205,0 -2.34204,0 -2.34199,2.30551 -2.34205,0 -2.34203,-2.30551 0,2.30551 -4.68399,-2.30551 0,-4.61109 -2.34206,0 -2.34207,-2.3055 -2.34205,2.3055 -2.34196,-2.3055 -2.34202,0 -2.34207,-2.30555 -2.3421,0 -4.68398,0 0,-2.30552 -4.68406,2.30552 -2.34198,-2.30552 0,-2.30549 0,-2.30548 2.34198,0 -2.34198,0 0,-2.30556 2.34198,0 0,-2.30561 0,-2.30547 -2.34198,-4.61106 0,-2.30554 0,-2.30549 -2.34203,0 0,-2.30561 -2.34205,0 0,-2.30551 0,-2.30547 -2.34205,0 -2.34196,-2.30555 -2.34207,0 0,-2.30551 4.68403,-4.6111 2.34205,0 2.34205,0 2.34203,0 2.34198,0 4.68406,-2.30557 2.34207,0 4.68401,2.30557 2.34207,0 2.34202,-4.61105 -2.34202,-4.61105 0,-2.30549 4.68398,-4.61112 9.36809,-2.30552 -2.34191,-2.3055 7.02602,-2.30554 2.34205,-2.30555 2.34199,0 2.34204,-2.30548 2.34205,2.30548 2.34204,4.61109 -2.34204,2.3055 4.68394,4.61114 4.68417,0 4.68402,-4.61114 0,-6.91659 2.34203,-2.30548 0,-6.91659 4.68413,4.611 4.68397,0 0,2.30559 2.342,0 0,4.61103 2.34208,2.30554 2.34195,-2.30554 2.3421,2.30554 2.34203,-2.30554 2.34203,0 0,-6.91662 2.34199,2.30559 4.68413,2.30548 0,2.30555 4.68394,0 -2.34191,9.22218 -4.68414,0 2.34211,2.3055 2.34203,2.30549 2.34191,0 0,6.91653 z"
       id="path330"
       inkscape:connector-curvature="0"
       n="Sierra de Luna" />
    <path
       d="m 608.28234,704.55464 0,2.30551 2.34207,0 2.34196,2.30555 2.34205,0 0,2.30547 0,2.30551 2.34205,0 0,2.30561 2.34203,0 0,2.30549 0,2.30554 2.34198,4.61106 0,2.30547 0,2.30561 -2.34198,0 0,2.30556 2.34198,0 -2.34198,0 0,2.30548 0,2.30549 2.34198,2.30552 4.68406,-2.30552 0,2.30552 4.68398,0 2.3421,0 2.34207,2.30555 2.34202,0 2.34196,2.3055 2.34205,-2.3055 2.34207,2.3055 2.34206,0 0,4.61109 4.68399,2.30551 0,-2.30551 2.34203,2.30551 2.34205,0 -2.34205,4.61099 0,2.30554 2.34205,0 0,4.61114 0,2.30555 2.34199,2.3055 0,4.61098 0,2.30566 0,2.30548 0,2.3055 0,2.3056 0,2.3055 0,2.30548 0,2.3055 0,2.30562 2.34204,0 0,2.30546 0,2.30553 2.34205,2.30555 -2.34205,0 0,2.30546 0,2.30556 0,2.30562 0,2.3055 0,2.30553 0,4.61104 0,2.30547 0,4.61109 0,2.3056 2.34205,4.611 2.34204,2.30548 0,2.30554 0,2.30559 0,2.30547 2.3419,2.30556 0,2.30551 0,2.3055 -2.3419,2.30552 -2.34204,2.30565 -4.68409,2.30548 -2.34199,0 -4.68408,0 -2.34208,0 0,2.30549 -2.34191,0 -2.34206,0 -2.34207,0 -2.34205,2.30555 -2.34196,0 -2.34202,4.61099 0,-2.30552 -2.34207,0 -2.3421,-2.30547 0,2.30547 -4.68398,0 0,-2.30547 0,-2.30555 -2.34202,-2.30549 0,-2.30548 -2.34204,-2.30565 0,-2.30552 0,-2.3055 -2.34198,-2.30551 0,-2.30556 -2.34203,-2.30547 -2.34205,0 0,-2.30559 -2.34205,0 -2.34196,-2.30554 -2.34207,-2.30548 -2.34207,-2.30549 -2.34194,-2.30551 -2.34203,0 -2.34203,-2.3056 0,-2.30546 -2.34207,0 0,2.30546 -2.34198,-4.61109 -2.34207,0 0,-2.30547 -2.34202,0 -2.34202,0 -2.34199,-2.30555 -2.34207,-2.30549 -2.34207,-2.30553 -2.34203,-2.3055 -2.3419,-4.61118 -2.34207,-2.30546 0,-2.30555 -9.36811,2.30555 -7.02611,0 -2.34202,0 -2.34203,0 -7.02613,2.30546 -2.34203,0 -2.342,0 -2.34196,-2.30546 -4.68405,-2.30555 -2.34211,-2.30553 -2.34197,-2.30546 -2.34208,-2.30562 -2.34203,-2.3055 -2.34202,-2.30548 0,-2.3055 2.34202,-2.3056 0,-2.3055 2.34203,0 0,-2.30548 2.34208,-2.30566 -2.34208,-2.30546 2.34208,-2.30552 0,-2.3055 0,-2.30555 0,-2.30551 2.34197,-4.61117 0,-4.61099 0,-2.30551 0,-2.3055 -2.34197,-2.30559 0,-2.3055 2.34197,-4.61107 0,-2.30549 0,-2.30548 0,-2.30556 0,-2.30561 2.34211,-2.30547 0,-2.30556 0,-2.3055 2.34203,0 2.34202,0 0,-2.30554 2.34196,0 2.342,0 2.34203,0 2.34211,-4.6111 4.68402,-2.30551 2.34203,-2.30547 2.34202,0 0,-2.30555 2.34202,0 2.34204,0 2.34205,0 -2.34205,-2.30551 -2.34204,-2.30547 0,-2.30563 0,-2.30557 2.34204,-2.30548 0,-2.30551 2.34205,0 4.68397,-2.30554 4.68414,0 2.34207,0 4.68393,2.30554 2.34207,0 11.71017,2.30551 4.68405,4.61105 4.68406,2.30563 2.34194,0 2.34207,2.30547 z"
       id="path346"
       inkscape:connector-curvature="0"
       n="Castejón de Valdejasa" />
    <path
       d="m 739.43585,697.63797 0,2.30557 -2.34203,2.30563 0,2.30547 2.34203,0 -2.34203,2.30551 2.34203,0 2.34197,0 2.34203,2.30555 0,2.30547 2.34207,0 0,2.30551 0,2.30561 0,2.30549 -2.34207,2.30554 0,2.3055 2.34207,2.30556 -2.34207,4.61108 0,2.30556 -2.34203,4.61097 -2.34197,2.30552 -4.68407,2.30555 -2.34209,2.3055 -2.34192,0 -2.34206,2.30559 0,2.3055 -2.34206,2.30551 -4.68406,2.30551 -2.34204,0 -2.34204,2.30548 -2.34191,4.61117 -7.02616,2.30551 0,-2.30551 -2.34199,0 0,-2.30563 -2.34203,0 0,-2.30554 -4.68413,0 -2.34195,-2.30548 -2.34208,0 -2.342,0 0,-6.91652 0,-2.30559 -2.34202,-2.3055 0,-2.30555 2.34202,-2.30552 0,-2.30549 2.342,-4.61104 4.68403,-2.30561 0,-2.30547 2.3421,0 0,-2.30556 2.34203,0 0,-2.3055 0,-2.30554 2.34203,-2.30549 2.34199,-2.30561 0,-2.30551 0,-2.30547 2.34202,-4.61106 2.34211,-2.30547 2.34203,-2.30563 2.34191,0 0,-2.30557 7.02618,0 7.02608,0 2.34192,0 2.34209,2.30557 4.68407,-2.30557 z"
       id="path348"
       inkscape:connector-curvature="0"
       n="Las Pedrosas" />
    <path
       d="m 521.62733,780.6371 0,2.3055 2.34202,2.30548 2.34203,2.3055 2.34208,2.30562 2.34197,2.30546 2.34211,2.30553 4.68405,2.30555 2.34196,2.30546 2.342,0 2.34203,0 7.02613,-2.30546 2.34203,0 2.34202,0 7.02611,0 9.36811,-2.30555 0,2.30555 2.34207,2.30546 2.3419,4.61118 2.34203,2.3055 2.34207,2.30553 2.34207,2.30549 2.34199,2.30555 2.34202,0 2.34202,0 0,2.30547 2.34207,0 2.34198,4.61109 0,-2.30546 2.34207,0 0,2.30546 2.34203,2.3056 2.34203,0 2.34194,2.30551 2.34207,2.30549 2.34207,2.30548 2.34196,2.30554 2.34205,0 0,2.30559 2.34205,0 2.34203,2.30547 0,2.30556 2.34198,2.30551 0,2.3055 0,2.30552 2.34204,2.30565 0,2.30548 2.34202,2.30549 0,2.30555 0,2.30547 -2.34202,0 -2.34204,2.30552 -2.34198,0 -2.34203,0 -2.34205,2.30558 -2.34205,0 -2.34196,2.30557 -2.34207,2.30549 -4.68401,0 0,2.3055 -2.34203,0 0,2.30556 0,-2.30556 -2.34203,0 -2.34207,2.30556 -2.34198,2.30546 -2.34207,0 -2.34202,0 0,2.30551 -2.34202,0 0,2.30565 0,2.30549 -2.34199,2.30551 0,2.30556 0,2.3055 -2.34207,2.30551 -2.34207,0 -2.34203,2.30563 -4.68397,0 -2.34207,0 -2.34207,0 -2.34194,2.30546 -2.34203,2.30555 -2.34205,0 -2.34204,0 -2.34202,-2.30555 -2.34202,0 -7.02605,4.61107 -2.34211,2.30546 -2.34203,2.3056 -2.342,0 -2.34196,2.30558 -2.34202,2.30546 -2.34203,4.61107 -4.68408,-2.30555 -2.34208,0 -2.34203,0 -2.34202,0 -2.34199,0 -2.34202,2.30555 -2.34206,0 -2.34202,0 -2.34193,0 -9.36819,-4.61107 -4.68408,0 -11.71005,2.30552 -9.36807,0 -11.71016,2.30555 -2.34206,0 -2.34204,0 -2.34202,0 -9.36804,2.3055 -9.36817,0 -2.34202,2.30547 -4.68414,0 0,-2.30547 -4.68399,0 -11.71019,4.61102 -2.34204,2.30563 -2.3419,2.30551 -2.34211,4.61105 0,2.30547 2.34211,2.30551 7.026,6.91665 2.34206,2.3055 2.34199,0 2.34206,0 -4.68405,4.61105 0,2.30559 -2.34206,0 -2.34206,6.91653 -2.34204,0 -2.3419,2.30551 0,2.30552 0,4.61112 2.3419,-2.30562 0,2.30562 2.34204,0 -4.68394,4.61105 -2.34211,2.30553 -2.34203,0 -7.02601,6.91659 -2.34206,-2.30559 -2.34206,-2.30554 2.34206,0 -2.34206,-6.91649 0,-2.30555 2.34206,-4.61112 2.34206,-2.30552 2.34205,-2.30551 0,-4.61101 2.3419,-2.30552 -2.3419,0 0,-2.30559 -2.34205,0 -2.34206,0 -2.34206,2.30559 -2.34197,4.61102 0,-2.3055 0,-2.30552 0,-2.30559 2.34197,-2.30549 -2.34197,0 0,-2.30556 -2.34206,0 -2.34203,-2.3055 -2.34207,-2.30552 -2.34195,0 -4.6841,0 -4.68401,-4.61113 -2.34203,-2.30551 -4.68401,-2.30547 -4.68414,-2.30555 -2.34202,0 -2.34199,-2.3055 -4.68406,-2.30551 -7.02611,-6.91665 0,2.30547 -2.34201,0 0,4.61118 -2.34204,4.61101 0,2.30555 2.34204,2.30547 -2.34204,0 0,2.30551 0,-2.30551 -2.34194,0 -2.34203,-2.30547 0,-2.30555 -4.68417,-4.61101 -4.68402,-4.61118 -2.34202,0 -4.684,0 -2.34203,2.30555 -4.68409,-6.91652 -2.34199,2.3055 -2.34207,0 -2.34206,2.30547 -7.02601,-4.61097 0,-4.61107 0,-2.30546 2.34202,-4.61118 0,-4.61098 0,-2.30555 -4.68408,-2.30546 0,-2.30563 0,-2.30551 -2.34208,0 0,-2.3055 -2.34193,-2.30556 -2.34203,-2.30551 -2.34202,0 -2.34208,-2.30549 -4.68404,0 -2.34207,0 0,-2.30565 0,-2.30551 -2.34204,0 -2.34194,-2.30546 0,-2.30556 -2.34206,-2.3055 -2.34207,0 -2.34202,-2.30549 0,-2.30557 0,-2.30558 0,-2.30552 0,-2.30547 0,-2.30555 -2.34195,-2.30549 0,-2.30548 -2.34207,-2.30565 -2.34203,0 -2.34199,-2.30552 -2.34202,-4.61101 -2.34204,0 0,-2.30556 -2.3421,0 -2.34191,-2.30547 -2.3421,-2.30559 -2.34201,-2.30554 2.34201,0 0,-2.30548 2.3421,0 2.34191,-2.30549 4.68414,-2.30551 2.34202,-6.91669 0,-2.30547 0,-2.30555 2.34199,-2.30549 2.34203,-4.61103 0,-6.91664 0,-2.30555 2.34207,-2.30553 2.34195,-6.91658 2.34202,0 0,-2.30548 2.34207,-2.3055 2.34206,-4.6111 0,-2.30548 2.34194,-2.30566 2.34204,-2.30546 0,-2.30552 4.68412,-4.61105 2.34199,-2.30551 0,-6.91665 9.36806,-9.22211 2.34208,-4.61105 2.34206,-2.30552 9.36807,-6.91653 4.68406,-6.91664 4.68409,-2.3055 4.68396,0 2.34207,2.3055 7.02604,2.30556 9.36814,0 7.02615,2.30547 2.34196,0 18.73616,6.91665 2.34211,0 16.39416,4.61101 9.36812,2.30555 0,-2.30555 9.36807,-4.61101 4.68414,11.52765 9.36806,2.3055 9.36815,2.30551 7.02605,2.30551 2.34202,2.30548 4.68401,2.30554 2.34202,2.30563 9.36815,2.30551 7.02609,2.30555 2.34206,0 0,2.3055 2.34202,0 2.34189,2.30552 2.34211,2.30546 2.34203,0 4.68401,2.30566 2.34203,0 2.34207,2.30548 2.34207,0 2.34199,2.3055 2.34202,0 2.34203,0 2.34194,0 2.34207,0 2.34206,0 2.34202,-2.3055 2.34199,0 4.6841,0 0,2.3055 2.3421,0 2.34193,0 2.34202,0 2.34206,2.3056 2.34202,0 2.34199,0 z m -112.41718,214.41407 -2.34211,-2.30547 2.34211,-2.30566 2.3419,-2.3055 2.34204,-4.61107 4.68412,-2.3055 2.34199,-2.30548 0,-2.30559 0,-2.30554 0,-2.30546 -2.34199,-2.30553 2.34199,0 2.34206,4.61099 0,2.30554 2.34202,0 0,2.30559 0,2.30548 -2.34202,2.3055 -2.34206,2.3056 -2.34199,2.30547 -4.68412,2.3055 -2.34204,0 -2.3419,4.61113 z"
       id="path362"
       inkscape:connector-curvature="0"
       n="Tauste" />
  </g>
</svg>
