<?xml version="1.0" encoding="UTF-8" standalone="no"?>
<!-- Created with Inkscape (http://www.inkscape.org/) -->

<svg
   xmlns:dc="http://purl.org/dc/elements/1.1/"
   xmlns:cc="http://creativecommons.org/ns#"
   xmlns:rdf="http://www.w3.org/1999/02/22-rdf-syntax-ns#"
   xmlns:svg="http://www.w3.org/2000/svg"
   xmlns="http://www.w3.org/2000/svg"
   xmlns:sodipodi="http://sodipodi.sourceforge.net/DTD/sodipodi-0.dtd"
   xmlns:inkscape="http://www.inkscape.org/namespaces/inkscape"
   width="1920"
   height="1080"
   viewBox="0 0 1920 1080"
   id="svg3349"
   version="1.1"
   inkscape:version="0.91 r13725"
   sodipodi:docname="cinco-villas.svg">
  <defs
     id="defs3351" />
  <sodipodi:namedview
     id="base"
     pagecolor="#ffffff"
     bordercolor="#666666"
     borderopacity="1.0"
     inkscape:pageopacity="0.0"
     inkscape:pageshadow="2"
     inkscape:zoom="0.7"
     inkscape:cx="1018.6934"
     inkscape:cy="577.9523"
     inkscape:document-units="px"
     inkscape:current-layer="layer1"
     showgrid="false"
     units="px"
     inkscape:window-width="1920"
     inkscape:window-height="1015"
     inkscape:window-x="1920"
     inkscape:window-y="0"
     inkscape:window-maximized="1" />
  <metadata
     id="metadata3354">
    <rdf:RDF>
      <cc:Work
         rdf:about="">
        <dc:format>image/svg+xml</dc:format>
        <dc:type
           rdf:resource="http://purl.org/dc/dcmitype/StillImage" />
        <dc:title></dc:title>
      </cc:Work>
    </rdf:RDF>
  </metadata>
  <g
     inkscape:label="Layer 1"
     inkscape:groupmode="layer"
     id="layer1">
    <path
       d="m 778.29297,792.95703 c -7.94471,4.79789 -13.79369,12.70394 -20.52149,19.07422 -7.03108,7.0806 -13.61728,14.98461 -16.60282,24.63104 -8.55684,13.54788 -17.71084,27.15776 -22.71163,42.51154 -1.99593,8.81441 -4.36519,17.74388 -7.20117,26.24805 -3.17454,2.76199 -7.16415,4.40182 -10.66406,6.70312 2.50423,2.83864 5.16458,9.08392 9.60937,7.66797 2.29366,4.65988 5.16082,9.55229 10.35156,11.26758 3.86928,5.43423 4.21854,12.39011 6.47852,18.38672 3.52989,5.125 8.97713,8.67319 12.92578,13.14453 4.60089,2.91943 11.90485,2.67874 14.74609,7.6875 1.07646,2.28209 2.68932,4.04239 3.42188,6.48828 2.13411,2.76187 5.53829,4.47836 5.94922,8.20703 0.0996,5.48219 -5.27351,13.06292 0.86133,17.39059 2.02106,2.1839 5.62556,4.506 7.9375,1.6758 1.93186,-1.0577 4.18244,-3.5646 5.15039,-0.1914 3.84271,5.2113 11.00355,0.9125 15.80078,2.2285 1.50398,3.412 4.92935,5.5833 6.66601,8.8047 3.95228,3.1286 7.02692,-2.2099 7.29883,-5.6992 -0.13718,-3.6086 3.46351,-6.1896 6.45899,-3.8496 6.35604,4.51 12.16785,10.591 20.00195,12.2754 1.51084,1.3952 3.54641,1.0276 5.15039,2.5801 2.4317,1.2398 4.39047,3.7206 7.01563,4.8535 3.01683,3.0862 9.14567,-0.3821 11.06445,4.2754 2.19283,6.1208 10.11331,6.3644 15.30859,7.6757 2.07649,3.1085 0.4699,6.6425 -1.30664,9.2754 -0.0857,5.072 -7.30071,7.0547 -6.9375,12.5723 -0.4258,4.5427 2.13939,14.8187 8.34375,10.2559 4.15299,-3.1493 7.76281,-6.9355 11.6211,-10.4239 -1.00124,-3.6191 -5.91625,-9.4061 -0.18165,-11.6972 2.30702,-1.0446 6.18136,-1.3574 5.78907,-4.9336 0.3531,-3.391 6.22807,-8.9062 1.08008,-11.2442 -4.94123,-3.9765 -13.26296,-7.8727 -11.45704,-15.5586 0.50003,-2.9904 3.79474,-4.6123 4.61133,-7.4922 5.74617,-2.6453 11.66725,-6.0506 18.32225,-5.2835 18.59732,-0.1375 36.68034,-5.27363 55.04064,-7.67305 8.8068,-0.65582 18.62534,-5.67212 26.63125,0.005 8.15609,5.53832 17.4654,-2.06737 26.0996,0.70703 4.5671,1.22278 7.3649,-4.90308 10.8092,-7.02819 6.1059,-6.00833 13.7586,-12.37936 22.935,-10.86634 4.7711,-0.93585 8.7415,-4.63323 13.8984,-4.01563 6.7703,-0.72194 10.9895,-7.17265 11.623,-13.50195 2.0537,-5.56222 7.9024,-9.80459 13.4141,-11.18555 6.9113,-0.72064 11.8189,-7.08422 18.2852,-9.08398 3.4884,-2.46834 11.3718,-1.90001 10.5644,-7.86133 -0.1845,-6.25049 -3.5795,-11.5887 -6.2773,-16.96094 -4.9926,-7.6359 -13.6279,-11.28639 -20.3653,-17.11133 -4.0508,-2.37713 -7.9484,-4.70026 -10.6386,-8.70898 -3.6684,-3.77807 -9.2596,-4.69949 -12.4551,-9.2126 -3.648,-2.8921 -6.0668,-6.93114 -8.8457,-10.43193 -5.0806,-1.56663 -10.5497,1.87072 -15.7559,1.83593 -7.2979,0.85975 -15.4387,4.23645 -22.0197,-0.74335 -7.1085,-1.97227 -10.9405,-8.31401 -15.89825,-13.20586 -7.44834,-6.2349 -18.08675,-7.89685 -27.51758,-6.97071 -13.40492,3.66152 -24.60789,-6.77317 -36.69336,-10.57617 -13.01964,-5.20492 -25.4456,-11.86809 -38.60351,-16.69727 -6.59987,-1.9317 -13.27543,-3.58777 -19.92578,-5.33398 -2.61045,-2.80709 -1.03727,-8.42595 -4.88868,-9.95703 -5.27378,-0.33278 -8.09714,7.37963 -13.86914,4.53906 -26.60058,-6.59187 -53.20929,-13.5634 -79.92773,-19.46875 z"
       id="path4201"
       title="Tauste"
       inkscape:connector-curvature="0" />
    <path
       d="m 1049.1016,756.52344 c -4.8402,-0.007 -11.165,0.62377 -12.3243,6.40234 -1.7189,3.69984 1.9337,7.29872 2.6368,10.40625 -7.5287,2.57338 -13.1823,8.7831 -20.0313,12.3457 -9.0197,-0.24591 -13.195,9.59526 -12.9258,17.32227 -1.2598,14.65648 -0,29.70721 -3.6836,44.01562 -2.96365,2.99592 -6.89788,7.73205 -3.35348,11.86719 3.92248,6.09769 9.19348,11.11784 16.06248,13.6754 7.0274,5.62462 15.5879,0.82065 23.5101,0.36667 4.5288,-0.11243 9.8199,-2.74936 14.068,-1.02058 5.167,7.13667 11.4339,13.98385 19.5079,17.68554 5.4557,5.26805 12.0163,9.24048 17.6718,14.23243 7.0242,4.02389 13.1417,9.63296 17.084,16.72851 3.2184,3.99449 0.5445,11.61508 5.3555,14.52149 3.0429,-0.16008 5.8845,-0.77576 8.9414,0.11523 4.6052,-0.56355 7.9647,-4.56128 12.5644,-5.48633 4.438,-3.77583 10.4193,-2.44327 15.5508,-4.37305 4.5586,-1.69309 7.6818,-6.29496 6.1953,-11.18359 -0.5185,-9.68296 -8.8458,-17.51855 -6.5254,-27.50391 0.3998,-8.66553 2.6256,-18.6894 -2.9746,-26.20117 -1.8359,-11.79068 -0.7104,-24.06314 -4.5546,-35.52539 0.6207,-3.39127 -1.0735,-7.71873 -5.2247,-6.76172 -3.1695,0.0945 -1.3198,-4.60125 -4.207,-5.65039 -3.1906,-3.16524 -7.9352,-0.95107 -11.375,-3.79297 -4.9899,-2.16657 -10.8992,-1.31547 -15.8301,-2.82421 -0.8393,-8.07609 0.9392,-17.46144 -4.748,-24.46485 -4.5978,-9.40571 -15.3407,-12.41265 -22.711,-19.00195 -7.1282,-5.27072 -16.7013,-2.54084 -24.6328,-5.7207 -1.3382,-0.20053 -2.6967,-0.22514 -4.0468,-0.17383 z"
       id="path4199"
       title="Castejón de Valdejasa"
       inkscape:connector-curvature="0" />
    <path
       d="m 992.51562,469.66406 c -6.57213,2.07688 -9.9519,9.58931 -15.63085,12.87305 -2.44109,-1.61461 -7.84555,-2.18025 -6.53125,2.25 2.33726,7.29795 4.49974,15.49433 -0.004,22.51506 -0.31133,7.01954 -10.3101,0.0141 -11.72283,5.9908 1.31339,9.3182 8.23506,18.5435 5.16151,27.96798 -7.93748,8.48856 -15.97315,17.0108 -25.43494,23.75858 -1.38378,1.74239 -2.87764,4.22377 -4.64063,1.27539 -7.74378,-7.33227 -16.66095,-13.80826 -26.37109,-18.20898 -11.09772,-3.04461 -24.63669,-2.91377 -33.07032,6.07422 -6.52129,4.87501 -11.87904,11.42978 -18.76367,15.58984 -4.61673,0.58435 -9.90561,3.60254 -14.05588,2.61064 -6.51516,-5.82519 -11.78262,-15.44087 -21.61489,-15.57251 -16.86884,-3.653 -33.79833,-7.48063 -50.14563,-12.92094 -14.85415,1.68956 -30.58938,0.72659 -44.25391,7.83203 -11.28934,4.49796 -22.66551,8.78416 -34.06445,12.87695 -8.93487,3.74106 -16.8364,9.02336 -25.25496,13.60878 -6.7876,2.28474 -5.76101,5.34535 -0.37395,8.7838 5.29353,3.58254 10.60746,7.38265 14.29688,12.79102 1.63198,6.26035 4.41114,12.75974 1.375,19.04492 -1.27311,6.09549 1.1116,12.55882 -2.26172,18.27929 -1.24958,2.95913 -1.82951,7.82968 1.9707,8.94336 4.89843,11.00261 -2.83174,21.9634 -3.68057,33.08282 -2.73584,6.29573 5.95126,7.73581 9.2538,11.46367 7.11431,4.65442 13.23459,10.73604 20.04786,15.6664 6.72288,2.18771 5.50189,10.00735 6.05664,15.57227 0.84176,9.69382 8.89815,16.53198 12.19141,25.39258 1.45533,4.40169 3.83635,10.18018 9.56445,9.61914 6.18263,-0.48648 11.84508,-3.82666 18.26933,-2.93448 5.52819,0.54471 11.20709,-1.39596 16.55099,-0.34091 0.37914,1.95916 -2.195,5.42853 -1.26172,8.30078 0.12128,2.72683 2.07619,5.37742 4.44336,6.18555 -1.13658,5.58418 6.09656,9.92583 4.44806,14.69503 -2.18646,2.88966 -4.61344,8.08773 -0.0789,10.1702 25.87676,8.88354 52.99171,13.62741 79.39453,20.71094 5.57669,2.19814 10.69769,-1.33183 14.88086,-4.61914 2.54314,4.79946 4.62768,11.45531 11.00781,12.11328 22.19192,4.66473 41.81733,16.7493 62.85953,24.68048 8.03723,3.66302 16.57525,9.38192 25.82797,6.63007 8.26971,-1.13198 16.67576,0.0593 24.27149,3.44531 4.52929,1.70072 4.94832,-4.08524 7.64452,-6.10547 4.2592,-7.40224 3.1158,-16.6129 4.3951,-24.81265 1.3126,-10.65759 -0.063,-21.69852 2.9506,-32.0018 2.2035,-4.92985 7.4309,-5.2254 11.6758,-6.9375 7.1782,-3.54458 12.3901,-10.62457 20.7266,-11.55079 -2.4875,-4.09823 -7.2345,-10.26404 -2.3516,-14.5039 4.0637,-1.90163 8.678,-1.84955 13.0273,-2.5957 -4.1388,-10.44043 0.6125,-21.26398 -0.1495,-32.0816 -0.2681,-8.02414 0.052,-16.10942 2.9816,-23.66059 2.1645,-5.87523 -5.572,-9.48886 -5.0996,-14.79102 1.6195,-5.50126 8.8296,-4.75086 11.3476,-9.65039 4.8182,-5.82187 2.5182,-14.16247 0.877,-20.7539 -0.7528,-11.01421 -3.1174,-22.3803 -9.3243,-31.73047 -2.555,-3.88351 -6.6473,0.82652 -10.1074,-0.85743 -3.2105,-0.28248 -5.371,-1.20278 -6.1914,-3.82226 -1.9266,-3.17428 -4.809,-5.96872 -6.3164,-9.27539 0.1314,-4.1232 -2.5083,-7.56451 -4.2383,-10.99805 3.0428,-3.05118 9.1306,-5.76987 7.086,-11.14648 -0.2101,-2.60801 3.2488,-4.66778 1.1425,-7.43555 -3.7396,-6.57196 -7.3781,-13.77592 -13,-18.85937 -4.5651,-4.10238 -1.2671,-11.32916 -5.9589,-15.33204 -2.6898,-4.40487 1.4106,-8.0984 4.3906,-10.88671 2.2104,-2.91366 0.5358,-6.98137 3.5306,-9.72051 3.0833,-4.52906 -3.5494,-6.79765 -6.8353,-7.81074 -3.8679,-1.98998 -10.9747,1.37082 -11.6934,-4.79297 -2.2347,-8.63547 -7.00677,-17.61992 -3.5664,-26.54297 -1.0433,-6.03517 -3.40649,-12.42715 -7.49606,-17.04297 -0.63994,-0.35502 -1.36753,-0.56725 -2.10352,-0.49805 z"
       id="path4197"
       title="Ejea de los Caballeros"
       inkscape:connector-curvature="0" />
    <path
       d="m 1214.2832,760.73047 c -8.2268,-0.65094 -16.5035,4.00201 -19.0039,12.10547 -1.9304,7.36138 -6.4287,13.39389 -9.9219,19.97656 -0.732,2.9548 -4.834,1.77348 -5.8398,4.86523 -3.1447,4.82399 -4.7515,10.96984 -2.2364,16.38477 -0.015,2.72579 -1.4744,8.14705 2.9942,8.11133 7.5695,-0.3216 12.8126,6.42349 19.7754,7.63281 4.3392,-1.25053 4.699,-7.3537 9.2304,-8.43164 1.9138,-2.6879 5.8133,-2.4134 7.9883,-5.19141 3.2515,-3.06562 6.6376,-6.08664 11.0508,-6.92187 2.9067,-3.18584 3.077,-8.3275 6.8731,-11.02149 1.6639,-7.09961 2.1475,-14.91097 0.6484,-22.09179 -2.1966,-4.9489 -10.0754,-6.27915 -8.4707,-12.87696 -2.7673,-3.58648 -9.1286,-2.076 -13.0879,-2.54101 z"
       id="path4191"
       title="Las Pedrosas"
       inkscape:connector-curvature="0" />
    <path
       d="m 1168.0059,728.0918 c -3.9607,1.13266 -1.5553,6.55218 -4.0938,9.24218 -1.6214,3.7415 0.7644,10.21209 -4.957,10.95313 -3.5037,1.53361 -8.3321,-2.09427 -8.2637,-5.23047 0.652,-3.27406 -1.4244,-7.44514 -4.3144,-8.98828 -3.116,0.26071 -3.676,4.71737 -7.334,4.66211 -4.5158,0.81206 -5.587,5.67396 -10.0622,6.58576 -4.5664,1.52877 -9.7356,4.60311 -9.4261,10.13104 -0.708,2.55999 0.5228,7.15404 -1.3945,8.2207 -4.86,-1.7103 -10.0852,-2.12708 -14.6875,0.56445 -3.7734,0.41552 -8.3003,-0.71785 -10.9883,2.90235 -6.1598,3.44267 -3.4992,5.90248 1.5859,8.4414 4.4637,4.75781 8.4778,10.86681 9.3926,17.39649 0.4213,4.48851 -2.3145,12.55628 3.6172,14.33398 2.6459,0.24749 4.8316,2.58691 7.7773,1.37109 4.7452,1.17873 9.383,3.12144 14.3125,3.63868 4.3099,0.64951 2.9872,6.91978 7.5586,6.92382 3.4861,1.14225 6.5505,-0.7699 9.4824,-2 8.3883,-0.69776 15.4558,4.59995 23.7598,4.70118 3.4068,0.66854 8.8038,0.41594 8.5801,-4.3125 0.267,-5.74746 -1.8577,-11.58084 1.1269,-17.0586 0.4452,-5.05909 7.4027,-4.24887 8.1739,-9.18554 4.7054,-6.40595 7.1658,-13.94152 10.4531,-21.04688 2.5755,-4.3838 9.2026,-8.37529 6.5801,-14.35351 -0.918,-2.96102 -6.4646,-4.74004 -5.7012,-7.27149 3.8367,-0.48328 6.3455,-5.71208 5.9375,-9.2832 -3.2847,-3.05664 -7.8676,-5.83714 -12.293,-6.33399 -2.9415,1.02073 -0.599,5.83536 -4.7265,5.68555 -2.6474,0.35298 -7.4215,2.47766 -7.1368,-1.78711 -0.8252,-5.2241 -6.2214,-6.26898 -10.2851,-7.82422 -0.8028,-0.50851 -1.6747,-1.14955 -2.6738,-1.07812 z"
       id="path4189"
       title="Sierra de Luna"
       inkscape:connector-curvature="0" />
    <path
       d="m 1225.8535,452.97852 c -5.6447,1.6483 -9.928,6.54901 -13.8515,10.4746 -5.0265,-4.28839 -11.7658,-10.8435 -18.875,-7.74609 -1.7437,2.67368 -2.6279,5.87798 -5.6231,7.5918 -3.7128,5.02777 -3.3837,11.88977 -6.3047,17.38476 -1.1019,3.44136 0.6726,7.47346 3.0625,9.59961 -2.0198,3.15247 -4.3944,7.33307 -1.2187,10.6836 4.0039,2.84924 1.9274,9.86339 -2.4766,10.57031 -3.0857,-2.03046 -7.0062,-5.00313 -5.541,-9.00781 -2.4691,-6.70598 -11.5382,-5.66918 -17.1192,-7.79102 -1.975,-1.32163 -4.6767,-2.38984 -6.4062,0.0586 -2.639,3.12812 -7.6241,7.68997 -11.6504,5.63281 -3.3877,-6.08812 -11.2793,-7.29131 -17.5918,-6.77539 -4.4567,-2.37888 -9.5405,-3.35911 -13.9492,-5.65039 -2.4565,-1.45846 -2.386,-4.93221 -5.4531,-5.56446 -1.0186,-3.78052 -4.5062,-8.99126 -9.0117,-6.1875 -6.2112,4.86147 -3.6101,14.21463 -7.6387,20.43164 -3.1995,5.41168 -7.559,10.32951 -8.2676,16.89063 -0.6447,5.55304 -2.6627,10.6566 -6.3008,14.8418 -0.91,1.84567 -0.5299,3.70909 -2.9512,3.93554 -7.4467,5.39832 -13.707,13.14231 -16.6015,21.94532 -1.8537,9.87347 -8.1452,19.6117 -4.9961,29.90429 -8.9476,2.31252 -14.98,10.01617 -22.5781,14.74414 3.5896,4.25749 4.4971,9.59273 6.6113,14.44727 3.0293,3.01177 4.8118,6.69379 7.3301,10.10156 3.398,3.85584 9.6522,3.25211 13.3828,0.2168 4.8132,9.36386 9.4185,19.1506 9.4029,29.90539 1.1267,6.89183 3.4204,13.70139 1.519,20.73133 5.0118,-0.0566 11.5481,-3.20607 14.8183,2.27929 5.2355,5.71635 14.1998,4.01619 19.7059,9.53987 2.3053,1.43642 7.2569,6.23855 8.6379,1.43279 -0.028,-4.84199 2.0726,-9.68096 6.8066,-11.36523 3.5813,-2.79562 6.8275,-6.26116 11.2949,-7.375 2.9125,-1.96924 0.4792,-6.36031 4.5723,-7.32618 5.3147,-3.33143 7.2937,6.16549 12.4355,5.97657 2.0555,8.71294 7.0473,18.46556 2.9454,27.18359 -4.4233,3.03208 -7.4547,8.35101 -12.4883,10.22852 -9.7498,-0.0178 -19.0299,3.9837 -28.6035,1.65624 -2.7676,-0.5119 -5.6462,1.36867 -7.0606,-1.55273 -4.0339,-2.40741 -10.0927,-0.99336 -12.6484,-5.56836 -3.9691,-2.50657 -3.9588,4.16063 -7.4531,3.75 -2.4195,0.97099 -4.934,0.99389 -7,2.42383 -1.0989,0.97836 -2.2725,5.32805 -3.5313,3.02734 1.9911,-1.75365 2.5597,-6.28834 -1.2051,-6.27343 -3.9399,0.50488 -6.8993,3.76389 -10.6269,4.51367 -3.3021,5.082 -1.2902,11.95364 -1.9807,17.69917 1.4221,10.00067 -4.2102,20.13279 -0.8553,29.87114 4.8604,8.17686 16.1976,5.0102 23.791,7.94141 5.5095,1.90782 9.1791,8.56002 14.9864,9.04687 3.9984,-2.10504 6.9265,-7.32537 12.0976,-5.27148 4.5671,0.21956 8.3392,-4.08913 12.9864,-1.84375 3.7599,1.57995 7.9289,-1.51374 6.8691,-5.60742 -1.5067,-4.9531 1.4629,-10.12592 6.5527,-11.15235 2.8363,-0.6276 5.3172,-2.42536 6.5508,-4.82422 4.0195,-2.05037 10.0403,-3.00379 11.6738,-7.68945 4.1125,4.61058 2.7973,12.98348 9.6172,15.44531 5.7571,1.22985 10.7891,-5.04378 9.6465,-10.57812 -0.061,-3.66713 2.4769,-6.81244 1.7656,-10.71094 3.74,3.60937 10.9168,1.93432 12.1836,8.08594 1.0579,5.37278 8.2784,3.82191 11.8809,2.32812 1.8993,-1.19337 2.0254,-3.7263 1.6172,-5.70703 3.864,1.93434 7.6738,3.97892 11.3965,6.17383 -0.9455,3.87213 -4.2631,6.57875 -5.5996,9.98633 1.0613,3.52011 5.645,5.17299 5.5674,9.46281 0.664,5.66381 8.6888,1.75025 12.7392,3.00789 4.8226,-0.13672 10.9574,1.13571 14.3125,-3.11914 9.7168,-4.16229 12.5467,-15.79679 16.868,-24.38048 3.5084,-6.24075 4.7201,-13.98253 10.9875,-18.27577 5.4355,-5.88259 12.2827,-10.42779 17.7168,-16.19336 1.3311,-5.72796 -1.3301,-12.00524 -4.1836,-16.93164 -5.8086,-6.58484 -10.5574,-14.63681 -9.8203,-23.75977 0.5661,-3.50153 -3.3105,-5.34058 -5.8868,-3.14257 -11.1345,5.96061 -21.0379,14.40451 -32.2617,19.93164 -2.5072,-0.90783 -8.6336,-1.84384 -6.4785,-5.94336 1.796,-3.67709 1.0766,-8.1976 -2.7656,-10.13282 -3.9646,-3.42953 -9.0021,-5.42434 -14.2696,-5.32617 0.3842,-4.67495 1.1401,-12.09028 -4.0253,-14.34765 -2.386,-0.45654 -7.2798,-0.002 -5.9649,-3.52735 0.5036,-3.24915 -2.765,-6.72464 0.625,-9.14453 1.2786,-3.67168 -3.7417,-6.4624 -1.832,-10.4668 0.8368,-2.72786 3.313,-5.99228 0.2305,-8.38867 -3.379,-3.09498 -6.6865,-6.11821 -5.209,-11.20898 0.7739,-3.79848 -2.6094,-13.58329 4.1582,-10.20703 2.6427,2.32394 6.8816,1.73314 7.4355,-2.14453 1.9608,-4.59703 8.1504,-0.7075 11.7539,-0.90235 3.49,-0.44147 7.8335,5.0004 10.461,0.8086 3.2452,-4.2576 12.5746,-0.78581 12.0665,-7.99459 0.032,-3.74283 2.3332,-8.32136 6.7245,-5.76127 5.6286,3.77083 10.2841,10.11753 17.1289,11.54882 5.0412,-1.32599 0.286,-6.82763 0.1875,-9.95703 -2.0627,-6.92236 -0.9492,-14.83999 -4.0528,-21.35547 -4.4568,-2.1504 -6.803,-6.8254 -8.3984,-11.24414 -4.3395,-4.92989 -6.1724,-11.70375 -7.4043,-17.99804 -1.2026,-5.68966 4.6566,-8.38834 6.0664,-13.31446 4.4421,-9.39832 6.9347,-19.61017 12.7197,-28.35375 2.8383,-3.96274 4.3477,-7.64658 -1.0849,-9.68726 -4.6848,-1.62831 -7.0498,-6.54535 -11.5762,-8.34375 -2.2249,-0.10474 -4.4904,0.36104 -5.8672,-1.9336 -4.6766,-1.30443 -4.4635,-8.041 -9.3496,-8.38671 z"
       id="path4187"
       title="Luna"
       inkscape:connector-curvature="0" />
    <path
       d="m 1322.4727,679.14844 c -8.6585,1.45246 -16.3972,6.43039 -24.6785,9.28435 -6.5271,3.36824 -14.3912,5.32181 -19.6672,10.5301 -1.6843,9.04324 0.3274,18.49131 0.7168,27.63281 1.4836,10.39938 7.4428,19.52538 11.3417,29.00196 2.695,2.7349 6.5709,5.25614 10.0547,2.26367 4.3431,-1.53136 8.3531,-4.49528 8.9649,-9.34375 1.7402,-3.07788 6.1178,-2.84446 8.0859,-6.03516 4.218,-2.94811 2.303,-8.07263 0.918,-11.84961 0.8093,-3.64059 6.1763,-8.92156 1.373,-11.75586 -2.3692,-1.85663 -8.1672,-5.63815 -5.3105,-8.97461 3.7223,-1.56578 11.2608,2.28804 12.6543,-3.18164 -1.3868,-4.01105 -7.696,-4.8178 -7.334,-10.0664 -0.9769,-4.88395 1.2134,-10.17822 5.8848,-11.92969 2.3292,-2.22764 -0.063,-5.90416 -3.0039,-5.57617 z"
       id="path4185"
       title="Marracos"
       inkscape:connector-curvature="0" />
    <path
       d="m 1130.2812,659.01172 c -4.2252,0.58633 -5.8355,5.70226 -7.3847,8.51953 -5.5454,0.9426 -8.5746,6.68092 -13.543,8.98828 -4.3573,2.38572 -5.339,7.4903 -5.5898,12.01367 -6.6873,-5.42892 -14.7725,-8.375 -22.6485,-11.47656 -2.8674,-2.70891 -5.9226,-5.99169 -10.3651,-5.16658 -4.9707,-0.97784 -9.0222,2.17108 -11.6505,6.06892 -2.9552,3.3561 -10.0272,3.06911 -9.9707,8.87696 -0.2636,6.34608 8.8589,10.18164 4.7559,16.77148 -1.7187,3.40715 2.7852,6.00908 5.0586,3.07422 1.3897,-1.36239 5.4441,-3.87692 6.2617,-1.56445 -3.0333,1.93891 -0.7713,8.55536 2.5918,5.11133 1.5719,-3.86632 5.5309,-5.27751 9.332,-5.15235 2.7318,-0.55996 3.5992,-6.24945 6.5586,-2.45312 4.8909,2.75611 10.7523,2.83906 15.6504,5.29883 11.4251,1.30903 23.4141,0.44484 34.4668,-1.51954 3.4631,-4.66666 8.9111,-7.55907 12.2773,-12.14843 2.9816,-8.78984 -1.1582,-18.16315 -3.0234,-26.71289 -2.367,-0.90739 -4.6406,-1.58329 -5.8047,-4.24024 -1.7865,-2.00989 -4.1209,-4.21112 -6.9727,-4.28906 z"
       id="path4183"
       title="Erla"
       inkscape:connector-curvature="0" />
    <path
       d="m 1272.3555,623.32812 c -4.7435,-0.14983 -11.0707,1.00956 -11.5957,6.81836 -0.3431,13.8717 0.081,27.97149 1.8398,41.76758 3.7391,8.65897 12.6216,14.77469 12.9863,24.94922 1.2252,5.29212 7.0101,0.12602 9.9565,-0.94599 11.1981,-5.39983 22.8215,-10.53998 34.4342,-14.63604 4.8574,0.0657 4.1391,-5.82018 3.539,-8.98437 0.5574,-4.16533 6.4876,-8.89811 1.7344,-12.47461 -1.2917,-2.27172 -4.9827,-3.12207 -5.6621,-5.36329 2.1184,-5.84489 0.518,-8.33898 -5.7871,-6.9746 -7.7084,-0.59217 -15.6408,-2.14154 -23.0039,-3.73438 2.1291,-4.24213 9.8075,-8.56157 6.1074,-14.00781 -5.1371,-2.37543 -11.4297,-1.71361 -16.5367,-4.63581 -2.5468,-1.02191 -5.233,-1.89166 -8.0121,-1.77826 z"
       id="path4181"
       title="Piedratajada"
       inkscape:connector-curvature="0" />
    <path
       d="m 1234.0215,569.71289 c -6.5555,0.91253 -2.3941,12.08613 -9.041,11.75977 -3.5921,0.40667 -6.7081,3.10923 -9.2715,4.76172 -5.0045,-3.17983 -11.5993,-3.65877 -17.4102,-3.51954 -2.7654,0.41665 -3.2297,4.08818 -4.2695,5.50977 -2.612,-0.92992 -7.0501,-3.76958 -8.4785,0.38672 -2.1097,5.22723 -1.7598,11.05696 -2.3613,16.56055 1.9902,2.59464 7.0637,4.16201 7.4335,7.63867 -3.9584,4.19068 -1.6886,10.45387 -0.1484,14.67578 -4.2714,2.94154 0.346,8.02593 -0.998,11.98242 0.887,3.80361 6.0488,3.08836 8.6875,3.15234 2.2107,4.19288 1.1398,9.00853 2.3144,13.26368 2.1869,2.96439 6.514,0.33694 9.1699,3.13476 3.1018,2.26769 10.1352,3.91382 7.5489,9.20703 -1.8681,3.52518 -0.5138,7.93712 3.5761,8.88086 5.9892,3.42785 11.0602,-3.18618 16.0458,-5.53679 8.5378,-5.59232 17.0686,-11.1961 25.5851,-16.82063 -0.5493,-19.01491 0.1624,-38.12543 -0.8379,-57.0957 -1.5896,-5.28711 -2.4467,-12.42926 -7.6211,-15.40625 -6.868,-3.35718 -12.2939,-10.56448 -19.9238,-12.53516 z"
       id="path4179"
       title="Valpalmas"
       inkscape:connector-curvature="0" />
    <path
       d="m 1095.9766,404.59766 c -7.0228,3.15792 -9.7489,11.41958 -14.0196,17.2207 -5.5053,0.61499 -10.6525,-2.14622 -15.3613,-4.24414 -6.351,1.50339 -10.9322,6.88236 -15.0508,11.56836 -4.1913,3.71734 -12.4006,4.54789 -13.6719,10.875 1.5704,2.65093 1.9567,5.85009 0.1,8.47461 -0.9427,3.41211 1.1899,7.93363 -0.2012,10.625 -4.1775,0.43642 -3.6879,5.37085 -1.707,7.90625 1.8346,5.72089 -3.8676,12.21596 0.1933,17.53125 0.4664,3.44133 3.0437,8.36922 -0.9004,10.41406 -1.4508,3.07283 -2.1116,6.39209 -4.2519,9.19922 -1.4853,4.45441 -4.0156,8.55638 -4.5098,13.32422 -3.2477,4.82534 -5.725,10.54345 -6.1895,16.2832 -3.016,3.57905 -9.3316,8.48383 -5.4687,13.69336 3.5089,2.41371 1.7485,6.16604 2.3203,9.53516 2.9047,6.24516 8.4726,10.71676 11.5195,16.87109 4.0993,3.50134 6.4564,9.3748 3.8047,14.35938 -0.5283,4.08834 5.0599,4.22374 6.7657,1.30273 3.2959,-3.28152 11.2749,-1.51427 8.636,-8.11016 -0.9466,-10.00789 4.6571,-19.09021 6.1511,-28.76289 4.0307,-6.68441 8.3585,-13.61375 14.1679,-18.73437 4.2286,0.27531 3.3597,-5.00405 6.2071,-6.73047 4.9995,-6.74447 4.6706,-15.76876 8.3359,-22.97266 6.8057,-5.8703 7.8278,-15.36588 9.0742,-23.65039 8.056,-7.31675 5.2194,-20.00473 11.4649,-28.50781 3.3291,-2.80583 2.1605,-7.23099 2.4375,-10.84766 4.4583,-5.93236 2.1709,-14.49898 -1.8594,-20.05468 -2.9502,-5.0747 -2.9906,-11.78099 -6.6484,-16.33008 l -0.627,-0.36133 -0.7109,0.12305 z"
       id="path4177"
       title="Orés"
       inkscape:connector-curvature="0" />
    <path
       d="m 722.66211,391.86133 c -10.33375,1.15334 -13.79457,12.59628 -19.29297,19.68555 -7.22166,10.2043 -12.85124,21.32673 -18.41245,32.46285 -3.968,6.54219 -11.00098,11.31581 -13.82388,18.4766 0.72471,3.54808 4.15595,5.90791 4.76953,9.66015 3.94165,3.81964 4.59702,10.19841 3.27149,15.26563 -4.89082,2.8599 -1.59122,9.74382 -4.42969,13.94336 -4.97492,9.10309 -0.52205,20.18214 -6.12013,29.01281 -4.94469,12.55089 -15.13267,24.84606 -12.77245,39.12391 2.28544,3.89785 1.75826,9.01388 4.75977,12.4707 4.60853,1.39269 8.11201,-4.36601 12.2541,-5.63929 18.23614,-11.64077 39.56032,-16.81242 59.24199,-25.40758 12.38872,-4.31771 25.84309,-4.47756 38.66776,-5.03714 4.73987,0.26218 12.3068,7.62101 14.86911,2.41997 3.11978,-4.86874 5.86526,-9.96874 6.13305,-15.91018 0.91377,-5.91322 1.67424,-11.84844 2.47852,-17.77734 9.37609,-4.12923 21.02373,-4.50513 27.65429,-13.16922 5.67184,-6.01715 12.77294,-10.95152 17.62305,-17.63742 -0.6197,-4.64849 -6.27321,-7.02368 -8.9744,-10.53622 -5.58786,-5.90487 -13.27143,-10.3645 -17.7756,-17.00285 -0.39649,-5.33094 -1.54448,-13.97028 -8.51172,-13.99609 -5.76096,1.9 -8.81981,-4.79202 -13.16015,-7.25586 -4.23285,-3.35122 -6.53051,-8.14155 -7.65821,-13.2539 -1.78133,-4.50094 -4.57206,-11.73861 -10.80468,-9.68165 -8.26213,0.86936 -17.13661,3.22583 -24.81914,-1.2619 -7.80389,-2.67811 -13.03615,-9.92982 -19.54414,-14.83966 -1.91735,-1.27663 -3.01371,-4.16748 -5.62305,-4.11523 z"
       id="path4175"
       title="Sádaba"
       inkscape:connector-curvature="0" />
    <path
       d="m 971.5957,405.61523 c -5.83248,1.86006 -3.74639,11.05236 -9.71289,13.25977 -5.36459,4.27748 -9.76986,10.08973 -17.01012,11.32626 -8.95637,3.45763 -19.61894,5.42028 -25.21058,14.10538 -4.3304,2.64206 -10.31103,2.25938 -13.99414,6.41602 -1.5287,1.37122 -2.83295,3.02585 -3.64844,4.91992 -2.22024,-3.92795 -5.46707,-9.11995 -10.81836,-7.26172 -10.53943,2.19158 -21.67697,4.23148 -30.98437,9.86133 -7.93811,6.40702 -9.68402,18.22974 -19.09961,23.16015 -9.99648,7.53878 -17.5299,18.14957 -28.125,24.82618 -6.47417,3.36004 -14.74209,3.60432 -20.32813,8.42187 -2.4797,10.26121 -1.48895,22.11315 -7.7539,31.29492 -2.02681,5.24918 5.70007,5.54197 8.86659,6.60776 11.61597,3.21021 24.0109,4.94077 35.17027,8.84457 4.10785,4.46079 8.21746,8.91994 12.32642,13.3797 8.23184,-1.66941 17.39915,-2.86179 23.05273,-9.875 8.44753,-6.75809 15.85777,-16.63368 27.67578,-16.9082 9.94585,-0.22197 19.55702,2.46538 27.37039,8.80285 5.9103,3.92854 11.48777,8.38688 16.13743,13.77723 5.44386,-6.88099 13.74023,-10.50177 19.32617,-17.32031 4.5955,-5.6816 13.77824,-10.90382 11.57617,-19.50586 -1.3483,-7.37161 -4.86652,-14.67962 -6.69922,-21.51172 4.53634,-0.85435 11.64647,2.50158 12.38569,-4.02658 3.84777,-8.5667 2.36661,-18.87247 -1.75288,-27.01834 -2.99995,-4.07316 -8.47658,-8.62368 -5.38672,-14.17188 1.75505,-4.01605 -0.95365,-8.85672 1.18555,-12.47265 4.42403,-3.33423 5.04696,-9.4548 10.32813,-11.91993 3.26028,-1.18173 7.83919,0.93331 10.28711,-2.67578 3.45123,-5.57783 5.80005,-11.88686 8.31054,-17.94531 -0.22533,-2.70657 2.13618,-4.79468 1.30274,-7.29297 -5.27513,-5.19528 -13.46641,-6.13014 -20.26931,-8.37381 -1.48119,-0.32658 -2.98066,-0.73409 -4.50804,-0.72385 z"
       id="path4173"
       title="Biota"
       inkscape:connector-curvature="0" />
    <path
       d="m 1006.8867,434.26172 c -3.5638,0.55064 -8.80672,0.86777 -10.79383,3.3465 -0.45324,4.66794 -0.1432,10.02812 -4.06357,13.29022 -2.94158,7.00607 2.0076,13.8737 3.13606,20.58446 1.23881,6.60011 7.04344,12.76684 4.43425,19.61476 -0.87086,9.51941 3.08809,18.59907 5.88869,27.47461 6.2062,-0.15223 12.0468,1.58477 17.6426,3.875 5.5965,-0.1914 4.4288,-7.38412 6.6054,-10.70899 2.0323,-4.46521 3.3503,-9.18846 6.2735,-13.15039 -0.2069,-3.19926 3.6471,-4.32585 2.955,-7.78906 -0.4191,-5.74339 -3.6347,-11.18898 -1.5,-17.05274 1.0711,-4.75204 0.4229,-9.85176 -3.6308,-13.05078 -3.1977,-4.596 -10.6191,-7.60178 -9.5781,-14.0664 -0.9323,-5.26857 -7.8063,-5.56897 -10.6153,-9.52735 -1.8685,-1.63489 -4.1976,-2.94465 -6.7539,-2.83984 z"
       id="path4171"
       title="Asín"
       inkscape:connector-curvature="0" />
    <path
       d="m 1136.4004,415.42969 c -4.9275,2.33155 -11.0518,1.00642 -15.834,3.83789 -3.0297,5.22702 -11.1886,1.05968 -14.5098,5.16992 -0.5775,5.02328 2.8295,10.77939 -1.1386,15.01172 -1.8773,4.33882 -0.043,9.6186 -3.8164,13.2793 -3.4493,6.96887 -5.0412,14.99008 -5.7637,22.61132 0.9494,2.56119 4.46,2.59549 4.9297,5.6543 3.3484,4.78068 7.5475,10.63163 13.9551,10.5625 4.5317,2.51043 9.3479,4.71602 14.7207,4.08008 5.1203,-0.17357 7.8969,4.0507 11.4687,6.625 7.1046,1.34891 15.9646,-6.80501 12.002,-13.92969 2.4218,-2.67701 4.3965,-5.95224 4.9824,-9.35156 5.5586,-3.87048 8.3698,-10.46215 10.418,-16.5957 3.9803,-4.32704 8.5754,-8.43954 10.5332,-14.08008 3.4954,-4.3719 -3.5862,-9.48583 -0.711,-14.34375 2.097,-2.36648 3.1937,-6.9712 -0.5664,-8.53906 -5.2909,-1.82845 -9.7189,-5.17202 -14.4141,-8.01368 -4.5345,-0.67957 -7.8747,6.25176 -12.7675,2.76368 -4.1277,-2.35221 -8.6698,-4.50122 -13.4883,-4.74219 z"
       id="path4169"
       title="El Frago"
       inkscape:connector-curvature="0" />
    <path
       d="m 1081.2148,219.04883 c -3.8543,-0.7875 -10.6265,1.28351 -8.0586,6.36133 1.0155,2.15988 3.0721,4.77838 -0.2089,5.5957 -2.2647,2.059 0.6765,5.42791 -2.1153,7.29297 -0.233,2.68056 -2.0036,3.0595 -3.6523,1.05469 -4.0265,-3.39725 -8.1999,0.77481 -10.9981,3.56445 -2.855,0.4273 -9.3191,-1.58024 -8.9101,3.54883 1.9924,6.16902 11.6942,10.58434 8.25,17.92773 -0.3538,5.04028 -6.9829,5.87105 -10.7012,7.7207 -8.0417,1.32626 -16.267,0.85474 -24.3808,1.40625 -3.54,11.10068 -6.3544,23.00256 -14.6845,31.64321 -3.8914,4.48775 -6.89979,10.08273 -5.1735,16.1811 2.0628,7.12331 -8.00283,10.29447 -5.73061,17.56337 -1.06033,24.41264 -2.20435,48.82165 -3.48761,73.22365 2.01475,1.72636 5.66555,3.06888 3.28906,5.95508 -1.63987,6.83323 -5.81269,12.63845 -7.80859,19.39649 -2.76205,5.33341 -10.30863,1.58506 -14.23242,5.69726 -3.68423,3.07978 -4.64618,8.22582 -8.51367,11.16992 -2.11279,4.8908 0.32438,10.58023 -1.47852,15.68164 -0.49273,7.74284 7.93357,11.86576 14.02734,14.20508 3.99644,-0.57662 4.74537,-5.59582 8.42579,-6.93359 3.13825,-3.10485 6.46501,-6.11922 9.98828,-8.46485 1.31886,-5.97007 -5.30304,-12.7385 -0.61328,-18.21875 3.0798,-3.45916 3.28487,-8.54797 3.95703,-12.66211 4.4467,-1.66543 11.2196,-4.27053 14.4375,0.64454 3.5134,3.62787 11.3538,4.75453 9.8105,11.34179 1.163,5.4925 6.6216,8.16466 10.9395,10.84571 2.9403,1.61645 6.9592,-0.47963 6.0059,-4.0879 -0.1534,-3.66881 -1.6786,-7.91453 1.5937,-10.59374 2.3496,-3.29379 -3.8232,-5.36566 -1.3848,-8.14844 6.1273,-3.71605 13.5653,-6.58846 17.2793,-13.01563 3.171,-1.76811 6.2552,-4.74447 9.2598,-6.08398 4.7157,2.43303 10.1789,5.7531 15.5781,4.9707 4.6228,-4.07084 6.0699,-10.81092 11.1016,-14.68359 5.6256,-3.1177 5.9177,-8.18877 4.4492,-13.89844 -0.9337,-8.55645 -4.1098,-17.61973 -10.5332,-23.53906 -3.9957,-2.50496 -9.1784,-4.73268 -11.4863,-8.88282 4.2141,-9.81204 8.0488,-19.93084 12.3926,-29.67968 4.2906,-6.4252 9.6199,-14.05833 6.7675,-22.1543 -1.6177,-5.40049 4.3739,-12.52841 -1.1582,-16.55273 -2.6492,-2.03917 -2.6245,-7.34685 -6.8105,-7.45118 3.8509,-5.31176 6.3353,-11.99693 10.4824,-16.8125 3.6318,0.26862 8.065,-0.32667 10.2051,-3.04296 4.6123,4.37052 7.0909,0.81135 9.4277,-3.63868 2.2865,-1.41623 5.6872,2.51796 8.8945,2.125 6.1242,0.30609 9.9006,-5.67861 15.295,-7.59765 3.0035,-1.8013 6.1152,-7.01696 1.7793,-9.22071 -5.9109,-4.16592 -13.0709,-7.28171 -18.3106,-11.69921 1.9873,-4.87855 -5.4725,-6.10234 -8.2539,-8.06055 -7.0134,-3.69181 -14.4237,-7.2405 -22.5469,-6.7832 -2.9361,-4.12259 -7.8622,-3.06523 -12.4043,-3.21094 z"
       id="path4167"
       title="Luesia"
       inkscape:connector-curvature="0" />
    <path
       d="m 1014.1113,232.60352 c -3.6962,0.0252 -8.3228,3.05597 -6.2754,7.23828 3.7633,5.70891 0.2044,12.0291 -3.7246,16.44726 -3.4084,-0.13651 -7.00819,-2.36806 -10.082,-0.30859 -4.78404,-2.80979 -11.08104,-5.34104 -16.37696,-3.22852 -6.14467,-1.89714 -12.35177,-4.92302 -18.87695,-4.16797 -7.57619,-0.5607 -14.26987,-5.63151 -22.05078,-4.67578 -4.07663,-0.52353 -7.66754,-5.61938 -11.12205,-1.04721 -4.20761,2.7777 -10.7973,5.7448 -9.26272,11.97299 -1.59667,5.18211 -6.83004,8.89369 -7.16796,14.73829 -2.01726,7.96046 1.46301,19.45292 -7.43555,23.88476 -5.94038,1.95915 -10.82836,5.70491 -15.9668,9.01563 -3.72553,2.2201 -9.459,4.73863 -11.05664,-0.87696 2.61948,-6.39197 7.64672,-13.23569 5.84766,-20.68554 -0.93405,-3.5344 -1.37418,-8.23554 -5.91407,-8.94141 -5.5417,-1.8248 -10.48771,1.8414 -14.1914,5.48633 -7.1492,2.89056 -11.97151,9.07975 -15.03516,15.93945 -4.40028,5.57082 -8.75746,11.0447 -11.08353,17.89723 -3.41912,6.4489 -8.32193,12.12801 -9.80514,19.51879 -3.99515,11.24874 -3.06446,23.52976 -8.79297,34.16211 -2.61412,7.57779 -5.08358,15.30598 -10.1875,21.63476 -3.00723,5.70796 -10.61829,7.32403 -15.79101,10.66602 -6.1248,3.09305 -15.10476,8.5909 -11.90235,16.74414 3.06754,4.78369 4.48283,10.25004 6.63086,15.42773 4.45891,5.54733 9.53181,11.42143 16.13477,14.36524 4.6102,1.28266 7.47343,-3.23149 9.71679,-6.33203 2.55012,-0.7405 5.60734,-0.55052 7.35547,-3.2793 2.27481,-3.36042 6.51871,0.62686 9.72266,-1.05469 4.91113,0.76491 3.43984,7.99105 7.85156,9.98828 4.31711,2.56069 -1.74207,6.47799 -4.54883,6.69922 -5.5695,0.70427 -7.01811,8.42201 -13.15741,8.01445 -10.3732,-0.007 1.26344,6.07935 4.26274,9.77176 6.21609,5.06863 11.48277,11.46274 18.10366,15.98528 11.83834,-4.3656 13.74604,-19.22968 23.82031,-25.54688 9.86934,-4.03463 20.45335,-7.26538 31.0918,-8.09375 3.77435,0.85589 4.14674,5.84631 6.18945,8.47656 3.65393,-6.78943 10.6438,-9.94356 17.66211,-11.87695 5.75391,-3.45737 9.35262,-10.27896 16.58519,-11.18989 5.7412,-2.43241 12.12961,-3.58126 17.63942,-6.32964 4.40992,-3.96835 8.54476,-8.27003 13.35742,-11.71289 3.01298,-2.89942 1.36944,-10.86269 7.14649,-9.8086 6.14504,0.47576 11.59627,4.38305 17.67578,4.32618 4.6986,-2.83839 1.67469,-9.85762 2.71484,-14.24414 0.61722,-20.96841 1.95834,-42.02856 2.73633,-63.04688 4.45307,-4.34386 6.79367,-10.21974 5.91457,-16.43942 -1.0264,-9.61083 9.1011,-14.74966 12.3354,-22.94925 2.9563,-6.52346 4.8322,-13.48434 6.8477,-20.33985 11.1459,-0.98267 24.6945,2.3242 33.5508,-6.55859 5.8097,-5.22052 1.346,-13.41552 -3.4121,-17.57321 -3.9773,-2.75048 -2.5194,-8.14578 -5.8125,-11.23343 -1.0858,-4.75634 -7.8016,-6.12668 -11.1231,-2.80469 -5.7289,0.37264 -12.7294,2.58051 -17.0781,-2.63672 -1.0643,-0.78003 -2.2989,-1.46819 -3.6602,-1.41796 z"
       id="path4165"
       title="Uncastillo"
       inkscape:connector-curvature="0" />
    <path
       d="m 819.76172,431.20898 c -2.9662,-0.28568 -3.88291,3.19972 -5.55274,4.5293 -4.5006,-1.22069 -9.84817,4.19572 -8.1914,8.47266 2.48675,0.76941 3.76496,2.61339 4.03711,5.41015 0.45885,4.2484 2.25152,10.1562 7.71484,9.39649 5.48655,1.21633 7.65017,-4.72328 11.51758,-6.91797 5.75322,0.26972 12.62839,-8.14396 6.05739,-12.13011 -2.00111,-3.26438 -4.16485,-9.80015 -9.51247,-7.97927 -2.09153,0.31557 -3.99937,-0.86845 -6.07031,-0.78125 z"
       id="path4163"
       title="Layana"
       inkscape:connector-curvature="0" />
    <path
       d="m 1152.0762,246.61523 c -4.1149,0.48723 -4.57,5.78812 -8.4532,6.79297 -1.8476,2.25804 -3.7074,4.25289 -6.6855,4.65625 -4.2622,3.46077 -9.864,7.68804 -15.5,4.59571 -5.3324,-4.70194 -6.7781,0.72658 -9.1406,4.97851 -2.7416,-1.85243 -7.1007,-3.25499 -8.6114,0.7461 -4.043,0.12043 -9.5101,-0.0152 -10.7734,4.95312 -1.6784,4.90504 -9.2906,10.27204 -5.2109,15.87305 1.6276,3.32783 5.1724,5.75841 6.6797,8.84765 -2.0055,6.24501 -2.3094,12.86436 -0.6368,19.18164 -2.639,9.77771 -9.838,17.54077 -12.5117,27.35743 -2.3256,6.28749 -6.796,12.53837 -6.4707,19.41796 2.9656,7.46844 13.917,7.12208 15.9063,15.33985 3.7355,6.50757 5.8511,13.68456 5.5468,21.21289 0.7407,8.42565 4.3489,16.22377 7.0332,24.14062 6.5486,-0.69101 14.9664,1.13815 19.4317,-5.10937 4.3884,-1.34814 9.9136,0.31071 13.7871,-2.51563 5.818,0.42108 10.6316,3.9962 16.0488,5.44922 3.9642,0.64524 6.9124,-3.99324 10.2149,-3.85156 4.688,3.67051 10.4449,9.06604 16.7929,7.53516 2.5666,-1.48875 2.2542,-5.24252 0.7969,-7.03125 7.7787,-3.04493 3.9767,-14.92329 11.584,-18.26953 5.9098,-6.76003 7.645,-16.42007 14.7031,-22.40625 6.3698,-6.61771 4.9542,-16.70355 7.9453,-24.81641 1.7431,-4.986 0.7871,-11.11994 5.3965,-14.66016 2.6632,-2.88599 2.883,-8.40572 -0.9277,-10.14062 0.036,-5.55514 -1.2531,-12.12721 1.3301,-17.06836 4.2918,1.47836 8.2013,6.03694 13.205,3.69531 4.5134,-0.91213 9.1049,-3.3755 9.7682,-8.40479 1.097,-3.45898 3.9958,-8.98376 -1.3541,-10.23583 -3.3082,-2.21533 -6.2152,1.51258 -7.8262,3.98828 -4.7128,-0.22378 -8.4933,-2.67733 -12.2168,-5.09375 -1.5033,-1.6094 -0.5045,-5.48569 -3.2011,-6.64844 1.632,-3.85188 -1.0178,-7.40484 -4.7715,-8.39453 -6.2354,-2.11059 -12.5704,-3.75987 -18.7267,-6.24237 -15.447,-4.64891 -28.1454,-14.91518 -39.1913,-26.26544 -1.1364,-0.86993 -2.4779,-1.67285 -3.9609,-1.60743 z"
       id="path4161"
       title="Biel"
       inkscape:connector-curvature="0" />
    <path
       d="m 811.57617,312.82617 c -8.84058,3.00783 -20.73144,5.6545 -23.64582,16.04162 -1.46346,2.91565 -6.40655,0.29178 -9.48894,2.00721 -12.31588,3.86043 -24.76546,9.68759 -33.28125,19.66016 -3.84083,6.59381 -5.95447,13.98917 -8.78711,21.0039 -1.08405,5.43887 -4.61505,10.02185 -7.72852,14.33594 -0.93864,3.00228 -8.24383,5.19006 -4.05078,8.89258 7.202,6.08527 13.73811,13.44349 22.19141,17.77734 9.46786,4.1314 19.99423,1.81191 29.79492,0.45313 4.21534,-1.76033 2.74611,-8.04314 6.93359,-10.26367 5.77655,-4.1342 12.64158,-6.41351 18.77735,-9.67969 7.63285,-7.33706 12.02392,-17.33904 14.64648,-27.42188 6.34287,-10.23201 4.8722,-23.02577 9.08207,-34.07018 1.31457,-4.04543 3.31473,-9.91894 -1.46098,-12.52161 -3.97474,-2.5394 -8.58026,-5.39491 -12.98242,-6.21485 z"
       id="path4159"
       title="Castiliscar"
       inkscape:connector-curvature="0" />
    <path
       d="m 792.00977,99.460938 c -4.92154,2.126342 -6.18813,8.594342 -8.08985,13.169922 -3.28986,14.35434 -14.63129,25.87148 -15.52539,40.9707 -0.27475,2.9976 -3.99194,7.25678 -0.0566,9.42774 4.80343,3.07375 -0.0235,11.88812 5.44141,14.47851 4.44622,-0.34077 10.38279,2.13086 9.58789,7.53125 0.12823,5.00714 1.33414,10.03024 2.3125,14.78711 -2.38207,4.74579 -2.40856,10.13846 -5.35352,14.65625 -1.8545,3.0494 -1.85597,6.87899 -2.83789,9.99414 -4.73295,3.35964 -6.38784,9.92588 -12.45703,11.67969 -3.4126,3.07807 -8.44836,2.57547 -12.23242,5.31445 -11.52486,5.48275 -16.26732,18.12427 -24.00314,27.35312 -5.13424,5.08978 -8.18089,11.98555 -7.3752,19.28448 0.0772,9.89745 -4.25195,18.82971 -6.84822,28.12217 -0.67766,9.61249 -6.26311,17.77531 -9.15235,26.53906 -0.36669,4.91459 4.91797,7.56076 8.0293,10.33203 5.01162,-3.08774 15.2459,-6.45804 17.49219,1.52735 -0.46255,3.93065 2.23513,7.22705 4.20117,10.02929 -2.33051,2.39962 0.18051,7.83127 3.16211,4.50586 5.02544,-8.59834 6.30302,-19.95756 16.19726,-24.78711 4.4991,-3.81301 9.36064,-6.88876 15.08203,-8.39843 5.44912,-2.8834 11.40264,-4.13699 17.45508,-4.52735 4.29104,-1.92903 3.76715,-8.39984 8.26953,-10.42578 7.1356,-3.29362 16.12967,-8.70623 23.64258,-3.33789 3.28776,1.71017 6.21038,3.99661 9.1211,6.26758 3.9392,-4.93497 7.94325,-9.99446 9.22461,-16.2832 3.34574,-7.40532 10.4749,-12.51264 13.29101,-20.32813 4.43524,-5.71461 11.67532,-8.46123 16.64063,-13.60742 3.41846,-1.80701 6.65382,-0.25539 9.92968,0.13867 7.92992,-2.82632 13.64791,-10.10909 21.80664,-12.43945 4.29712,-2.5943 5.35573,-8.18416 8.50196,-11.49219 8.51291,0.386 17.47531,-2.39239 22.99804,-9.125 2.88329,-6.39846 5.10156,-13.24211 9.92188,-18.57617 6.19699,-9.04429 10.25112,-19.25855 14.10742,-29.39844 0.73085,-4.67124 -5.88829,-5.69665 -7.95898,-2.01563 -3.83928,3.10164 -7.80236,-1.36795 -11.51368,-2.47265 2.71076,-7.1439 7.09137,-16.66189 1.09571,-23.32422 -0.2143,-3.70478 -3.4623,-7.02223 -7.17383,-5.02734 -3.24092,1.66164 -6.64731,-3.66867 -9.24609,-0.0937 -2.08363,8.81225 2.67366,17.7316 -0.38756,26.51108 -6.74264,3.18201 -13.49981,-1.92666 -18.87612,-6.03452 -8.10576,-4.7648 -17.98219,-6.53396 -25.75195,-11.19727 1.38546,-4.15326 -2.18787,-7.49583 -5.85742,-8.5957 0.82366,-6.08981 2.21994,-12.43217 1.74414,-18.52734 3.27395,0.94754 7.06892,2.55264 10.10742,-0.1875 3.42598,-3.04132 3.8325,4.27446 5.75781,6.12695 2.89973,-3.57603 6.11682,-7.33021 8.54297,-11.06445 4.57005,1.20491 10.45347,4.58305 14.81446,1.56836 1.49089,-4.57158 1.31266,-9.49437 4.14257,-13.77539 3.16357,-5.40168 2.6478,-12.56577 6.51563,-17.29102 3.15962,-3.10416 -1.99772,-5.4763 -4.72656,-5.45313 -4.08371,-0.28978 -11.04935,-3.640731 -12.78907,1.9668 -1.84241,5.29036 -8.33422,8.97451 -13.76562,7.62695 -2.01782,0.50533 -2.93251,2.63994 -5.10742,0.625 -3.3673,-2.36465 -6.00917,-5.82914 -10.25391,-7.11328 -5.77382,-2.14728 -13.20605,-6.951904 -19.19336,-2.97656 -1.39296,2.63747 -3.61864,3.99508 -6.83082,3.3851 -5.3127,-0.34163 -10.94398,0.88349 -13.88598,5.78678 -2.39688,2.12237 -3.80647,7.02962 -7.80439,4.71625 -5.7496,-0.40392 -8.6795,-7.35052 -14.67803,-7.65766 -4.07264,-1.83322 -8.8517,-2.69056 -12.09961,-5.88086 0.22623,-3.94593 -4.93631,-2.04004 -7.30468,-3.007812 z"
       id="path4157"
       title="Sos del Rey Católico"
       inkscape:connector-curvature="0" />
    <path
       d="m 1156.8984,145.21875 c -4.6734,0.72492 -9.0006,3.62932 -12.4863,6.72656 -1.5857,1.67533 -0.815,5.03942 -4.1055,4.31641 -5.7415,0.22613 -12.8255,2.30327 -17.7988,-1.6543 -6.1305,-1.45271 -12.9606,-1.55858 -18.9121,0.0723 -1.2978,-1.78808 -5.0819,-1.54476 -5.541,-3.20117 -1.0332,-4.45584 -7.6696,-4.30176 -10.9766,-2.41797 -8.6146,3.71315 -6.3823,14.36236 -7.9121,21.72851 -2.3831,4.97083 -1.2469,10.28869 -0.8262,15.51758 -1.3495,5.61155 2.8503,11.74047 -1.9296,16.51758 -2.2453,4.93814 -5.1792,10.52253 -4.5215,16.04687 3.5278,3.90134 9.9777,0.75921 14.5468,1.57032 4.2346,-0.52337 6.9123,3.8288 11.2422,3.63281 9.5158,1.318 18.556,6.8976 26.502,11.03125 -1.7421,5.24803 5.866,7.12681 8.9278,9.54172 4.5359,2.83029 8.8738,5.97106 13.5956,8.52273 4.8322,-6.49343 12.1906,-10.08473 17.1895,-16.5039 -3.4139,-3.02148 -7.8452,-4.62098 -10.9317,-7.9629 1.8029,-5.53111 10.2219,-6.90233 9.1914,-13.67968 -0.2842,-2.12182 3.9121,0.30185 5.5235,-0.21485 3.6706,0.36684 8.7558,4.23508 11.2558,-0.50586 4.8495,-6.18505 0.2153,-15.04858 -6.5586,-17.41015 -4.0762,-3.04175 -9.8047,-5.2358 -12.039,-9.88867 1.8122,-4.3284 3.9263,-9.08755 5.4765,-12.90625 -3.6584,-3.96627 -1.1249,-9.81209 -3.3613,-14.31641 0.3771,-3.19548 2.6865,-6.3935 0.1446,-9.16602 -1.7564,-2.30588 -1.8251,-5.85786 -5.6954,-5.39648 z"
       id="path4151"
       title="Longás"
       inkscape:connector-curvature="0" />
    <path
       d="m 1074.3906,154.61914 c -3.8905,-0.85866 -5.922,3.94605 -9.7716,2.11953 -6.6926,-1.40681 -13.6823,1.71325 -20.1249,-0.6039 -5.4161,-0.32218 -10.8193,0.50195 -16.2226,0.74609 -3.5882,12.56102 -4.9216,26.30497 -12.9512,37.05859 -1.5032,3.60359 2.743,6.57502 1.3613,10.40625 0.3393,7.22844 -6.216,13.45556 -4.4707,20.61914 1.8753,5.92248 5.7594,15.19551 13.4532,14.01563 4.2515,-0.63371 9.2702,0.63661 12.6191,-2.47852 5.0509,-0.95393 6.4857,4.59095 9.1856,7.38867 3.8458,1.78649 9.3043,2.86291 12.0683,-1.25195 1.7805,-2.53069 5.26,-4.24409 7.3242,-1.21484 5.4822,1.63385 6.5937,-6.20643 7.8106,-9.78711 3.1421,-5.47024 -3.2884,-11.57628 -0.7383,-17.37305 0.3541,-5.8548 4.7515,-10.07831 6.1641,-15.45898 1.2465,-7.76694 -0.862,-15.57895 -0.3184,-23.29102 2.0803,-6.76529 2.045,-13.9107 1.9102,-20.91601 -2.4328,0.0183 -4.8665,-0.0349 -7.2989,0.0215 z"
       id="path4149"
       title="Lobera de Onsella"
       inkscape:connector-curvature="0" />
    <path
       d="m 990.27734,147.66602 c -4.52916,2.68542 -5.24939,9.07164 -7.06159,13.68898 -1.99859,9.83888 -6.56992,18.79017 -9.71184,28.2075 0.0614,4.22408 -2.04292,8.32934 -1.25586,12.46875 2.30603,4.76068 8.54542,5.06068 12.18554,8.55273 2.90417,1.37354 6.4505,1.78435 6.62696,5.89258 2.17174,6.40433 3.7358,13.8915 10.08005,17.52539 2.4645,4.00712 8.4197,1.37237 12.0117,0.49414 5.3072,-1.81349 1.5977,-7.89699 0.014,-11.13671 1.0425,-8.23803 8.3606,-15.81872 4.4297,-24.38282 -1.5022,-2.12752 -2.1306,-4.25645 0.2324,-6.26562 7.3995,-9.85943 8.6526,-22.69354 11.5313,-34.19141 -1.2208,-4.03459 -6.5793,-0.74111 -9.502,-2.27539 -9.3902,-1.20812 -19.5378,-1.49349 -27.15818,-7.86914 -0.73726,-0.38382 -1.55698,-0.90624 -2.42188,-0.70898 z"
       id="path4147"
       title="Isuerre"
       inkscape:connector-curvature="0" />
    <path
       d="m 969.29102,135.92773 c -3.92881,7.46862 -7.53834,15.4437 -6.66016,24.10547 0.0999,2.29749 -3.83264,5.85361 -4.4375,2.12891 -1.88847,-1.4156 -3.33224,-2.78981 -4.55078,-4.79883 -4.65349,-2.41511 -7.55729,4.74119 -12.50781,2.79883 -3.04895,-0.74702 -8.72451,0.84256 -6.64844,4.95703 4.69242,5.34529 3.18112,13.03655 0.41015,18.94727 -1.99196,3.75457 0.7283,7.50401 4.54297,8.33203 3.75871,2.30143 7.71379,-0.34238 10.42774,-2.67578 6.14281,2.33227 12.72608,-2.04261 19.10547,-0.44336 2.74418,1.38929 6.15924,0.8324 7.1289,-2.48633 5.95988,-11.40098 7.47724,-24.40488 12.81641,-36.03711 1.85049,-4.75431 -3.57672,-7.03382 -6.63086,-9.11133 -3.55126,-3.22181 -8.04365,-5.1667 -12.07031,-7.69922 -0.3086,0.66081 -0.61719,1.32162 -0.92578,1.98242 z m -73.35938,0.22071 c -4.46494,0.70218 -6.05011,6.91033 -10.04883,7.75781 -1.4117,-3.50511 -2.11617,-7.55381 -6.04039,-3.45746 -2.89157,3.04507 -6.56859,1.14888 -9.69984,-0.30426 -0.11131,7.06563 -3.27658,14.45195 -1.54883,21.43164 2.36816,2.02385 5.52704,3.68312 4.99219,7.40039 2.08937,5.21426 9.35355,5.10186 13.59765,7.64063 7.27485,2.26942 14.07686,5.22632 19.85547,10.30859 3.86089,3.32955 10.44608,3.51473 14.22461,0.36914 1.40494,-12.62635 -0.54116,-25.46869 -0.96094,-38.13476 -4.07697,-2.73744 -6.37756,-7.39839 -10.08398,-10.30078 -4.60888,-1.49069 -9.63562,-1.41978 -14.28711,-2.71094 z"
       id="path4145"
       title="Navardún"
       inkscape:connector-curvature="0" />
    <path
       d="m 950.59375,31.611328 c -3.69027,1.995355 -1.29428,8.142625 -2.66016,11.675781 -1.02882,6.153682 -0.62024,13.210956 -2.67773,18.804688 -3.40603,2.528633 -8.23358,1.668757 -11.4707,4.005859 -1.56964,4.35114 0.74521,9.233254 -1.71784,13.564799 -2.47385,8.531658 -4.61464,17.154967 -6.87201,25.745745 -3.6914,-0.43837 -8.07446,0.34795 -8.17187,5.01953 -2.25288,8.23292 -6.21037,15.95534 -8.28125,24.18555 0.19982,7.169 7.15156,11.1318 10.34765,16.66406 -0.37248,3.00418 0.91598,10.25915 5.20313,7.15625 -0.31007,1.96516 2.60913,5.11246 4.93945,2.75196 1.52192,-2.68066 3.91144,0.16945 6.00586,-0.3711 4.8551,3.31802 11.58555,1.40206 15.58008,-2.30468 2.87805,-1.09721 3.06178,4.3726 6.16406,4.63281 3.4152,1.6816 7.69694,-0.31711 7.5586,-4.38477 -0.11838,-8.5894 3.21215,-16.51442 6.89257,-24.13476 -2.066,-3.154 -7.26654,-6.15979 -7.58593,-9.58789 3.11575,-3.6176 4.22784,-8.59478 7.91015,-11.91211 -4.35666,-2.4709 -4.7063,-5.35899 -1.6289,-8.91993 1.35649,-3.25146 5.16588,-10.425695 9.29882,-6.894526 1.40409,4.020186 5.95225,3.102286 8.5586,0.835937 2.60287,-2.007348 9.66096,-4.336681 6.48437,-8.398437 -4.60081,-2.673762 -10.87215,-2.465609 -13.96093,-7.550782 -2.57498,-3.071537 -2.45672,-8.148542 -6.78321,-9.976562 -2.50187,-0.452335 -4.079,-2.378164 -0.86523,-3.033203 2.82207,-2.794214 1.89796,-7.466789 4.61523,-10.59375 2.83669,-2.031648 1.07005,-5.622725 1.17969,-8.050781 1.78276,-4.200972 -3.96218,-6.90711 -7.27539,-7.701172 -3.57536,-3.349003 -7.20891,-8.078984 -12.83203,-6.939453 -3.56211,0.437726 -4.6246,-4.353834 -7.95508,-4.289063 z"
       id="path4141"
       title="Urriés"
       inkscape:connector-curvature="0" />
    <path
       d="m 980.13867,15.300781 c -5.30264,1.025764 -2.2002,10.184171 -8.35742,10.5 -4.71182,1.307943 -7.65046,5.752767 -11.16211,8.802735 4.30377,4.988818 9.35497,9.248997 15.29297,11.984375 4.05393,1.682592 0.4425,4.977546 1.70703,7.871093 -0.99356,4.387501 -5.9555,9.325141 -3.59766,13.597657 -4.10327,-2.334214 -6.20065,4.88492 -1.61328,5.191406 3.24603,1.884056 5.62077,4.858744 5.77735,8.564453 2.8197,6.311326 10.76002,6.461617 15.81445,9.691406 1.03354,2.642265 -3.85605,2.253791 -5.21875,4.035156 -2.27455,1.080123 -6.2562,5.587868 -7.80273,1.226563 -2.79727,-4.247853 -8.22527,-1.08878 -9.86524,2.529297 -2.47483,3.865518 -6.7168,8.894038 -2.875,13.365238 0.40316,5.07653 -5.10716,8.5193 -6.66025,13.1509 6.33428,8.97797 17.33968,15.31571 26.83332,21.55462 7.73549,5.59317 16.51815,10.25305 26.33615,9.9891 10.0321,0.55582 20.4652,0.66427 30.3013,0.0397 6.4507,3.19165 14.4143,-1.61638 20.6426,2.00391 3.7592,0.64821 4.5947,-5.15467 8.9063,-3.32617 4.0253,0.64433 12.2511,-0.925 10.2089,-6.63868 -0.7443,-3.8371 -3.2179,-7.23997 -4.5625,-10.61914 0.8861,-6.47975 0.7784,-13.5301 3.0879,-19.64062 4.7397,-1.08217 6.1553,-5.93761 5.525,-10.23618 0.019,-6.67723 -1.8133,-13.23282 -0.9644,-19.867338 -0.1639,-3.898722 -2.7842,-10.123968 2.2812,-11.691406 2.739,-3.974516 0.1354,-9.442574 -1.4707,-13.482422 -3.7996,-3.609091 -9.9527,-0.503063 -14.5957,-1.11914 -18.0474,1.05113 -36.0323,2.941495 -53.9687,5.085937 -2.4088,-6.913011 -3.308,-14.294386 -1.5391,-21.513672 -0.1705,-4.486466 1.28,-11.477568 -3.5117,-13.933593 -5.6734,-1.287145 -12.0652,0.339287 -17.32755,-1.295241 -5.1885,-4.701279 -10.22714,-9.587976 -14.6666,-14.931322 -0.85289,-0.596658 -1.90293,-0.998458 -2.95508,-0.888672 z"
       id="path4139"
       title="Los Pintanos"
       inkscape:connector-curvature="0" />
    <path
       d="m 1126.5664,64.919922 c -2.7852,0.491131 -4.9726,3.017794 -7.5312,1.121094 -2.5629,0.671536 -4.9345,1.368823 -7.6348,0.90039 -3.414,-0.159275 -3.1403,4.232884 -5.1309,5.107422 -4.4616,-0.578746 -9.8713,-3.282803 -14.0468,-0.730469 -1.5478,2.537334 -2.3511,5.480754 -5.1856,7.173829 -3.5041,4.674652 0.9271,10.826685 -0.6601,16.105468 0.2098,6.880954 0.6957,13.749654 1.0703,20.623044 -4.2142,0.87293 -7.089,4.38391 -6.6465,8.72071 -0.087,5.54409 -4.0175,11.73447 -1.4727,17.0332 3.6592,2.16655 1.2191,11.37968 7.0274,10.00195 3.9317,-3.45259 10.3063,-1.6241 12.7343,2.59375 4.1329,4.34711 10.3437,0.51739 15.4258,1.50781 3.552,-0.15767 9.5378,-0.53883 8.9746,-5.48828 1.091,-3.93707 3.6235,-7.58214 3.1934,-12.00195 1.5863,-8.52998 5.4667,-16.88021 10.3027,-23.96484 3.2617,-1.03397 3.3105,-5.97758 7.6895,-4.97657 4.2008,0.19873 11.3324,1.49247 12.3262,-4.375 0.4905,-7.128288 0.6803,-14.995997 -2.4649,-21.558589 -4.6204,-5.188472 -11.6485,0.798749 -16.5278,2.366477 -2.7714,2.208783 -4.0837,1.255017 -4.1011,-1.997337 -0.5163,-2.901075 -1.089,-6.986433 -4.2324,-7.919922 -0.7204,-3.04963 1.3914,-9.733551 -3.1094,-10.242187 z"
       id="path4137"
       title="Bagüés"
       inkscape:connector-curvature="0" />
    <path
       d="m 878.8457,13.806641 c -1.89903,3.110028 -7.58717,3.126177 -6.55468,7.822265 -0.69639,4.52284 3.43032,6.967301 7.31445,7.541016 4.92286,2.337265 11.95555,3.248026 14.19336,8.714844 -2.29898,1.354258 -2.7135,4.872587 -5.73242,3.117187 -2.42284,0.186445 -5.46306,-1.840016 -7.21094,1.078125 -5.96667,7.680025 -15.53989,11.614428 -21.46289,19.462891 -2.57759,3.784707 -8.25319,4.751788 -8.40039,10.115234 -1.74957,10.409882 -1.62129,21.7602 3.67187,31.205077 9.29371,-1.11754 18.65967,2.83333 25.76953,8.39258 1.62925,3.80762 6.31778,3.49332 9.43946,2.33984 6.29628,0.8965 12.79719,-3.97962 14.74609,-9.85156 4.35346,-3.16437 10.49142,0.72156 15.36957,0.8138 3.50601,1.49171 8.88083,0.19107 8.39996,-4.47786 1.83594,-8.857946 5.4902,-17.478752 6.0918,-26.669924 1.01981,-3.117004 -2.11186,-9.219141 3.37305,-7.646484 4.63506,0.667327 9.76605,-1.851316 10.11132,-6.964844 1.38336,-10.711877 2.94045,-21.643603 2.25977,-32.441406 -3.12617,-7.505386 -14.22561,-10.684865 -20.9375,-6.175781 -5.55829,5.417027 -6.53478,15.975893 -16.02149,16.636718 -5.30186,0.202912 -6.97509,-5.441971 -8.39453,-9.394531 -3.90006,-3.649019 -11.14927,-2.85769 -13.30664,-8.320312 -3.49213,-2.772491 -7.80854,-4.196384 -11.72461,-6.232422 l -0.72824,0.68532 -0.2659,0.250227 z"
       id="path3338"
       title="Undués de Lerda"
       inkscape:connector-curvature="0" />
  </g>
</svg>
